<svg width="164" height="40" viewBox="0 0 164 40" fill="none" xmlns="http://www.w3.org/2000/svg">
<g clip-path="url(#clip0_393_13801)">
<path d="M57.7833 23.7246H63.3011L60.579 14.0537L60.5364 14.088L58.2045 22.1407L57.7833 23.7246ZM74.8491 35.1279H74.3108H73.3982H67.3246H66.7855H66.4871L66.3994 34.8362L66.2723 34.3632L65.0822 29.9812H55.9437L54.5789 34.3824L54.4385 34.8421L54.3508 35.1279H54.0515H53.5317H47.4572H46.5396H45.9946L46.1601 34.6072L46.4108 33.8049L55.637 4.53505L55.7766 4.08206L55.8719 3.80124H56.1644H56.6776H64.3074H64.8281H65.1198L65.2059 4.08206L65.3496 4.5409L74.4396 33.8082L74.6903 34.6081L74.8491 35.1279Z" fill="white"/>
<mask id="mask0_393_13801" style="mask-type:luminance" maskUnits="userSpaceOnUse" x="-2" y="0" width="166" height="40">
<path d="M-1.18576 40H163.053V-0.000430974H-1.18576V40Z" fill="white"/>
</mask>
<g mask="url(#mask0_393_13801)">
<path d="M84.1623 17.4822H87.7938C91.3592 17.4822 91.8632 16.0313 91.8632 13.9243C91.8632 11.8507 91.3592 10.4232 87.7938 10.4232H84.1623V17.4822ZM84.1623 35.1172H83.7661H83.1343H77.3507H76.7197H76.3218V34.7503V34.7202V5.52055V4.23178V3.83395H76.7197H77.3507H87.833C91.3232 3.83395 94.0738 4.6037 96.0011 6.12984C98.083 7.77465 99.1879 10.5779 99.1879 13.9243C99.1879 17.341 98.0245 20.3774 96.0011 21.9771C94.0738 23.5007 91.3232 24.2746 87.833 24.2746H84.1623V34.09V34.7202V35.1172Z" fill="white"/>
<path d="M25.5716 16.8213C26.491 16.8171 27.2958 16.4042 27.87 15.8108C28.4467 15.2158 28.8295 14.4059 28.8295 13.5007C28.7927 11.7113 27.3694 10.2646 25.5507 10.2262C23.7697 10.2345 22.2369 11.6378 22.2168 13.5007C22.2402 15.3528 23.7463 16.8062 25.5716 16.8213Z" fill="white"/>
<path d="M25.5508 23.3526C23.7697 23.3626 22.2369 24.7642 22.2169 26.6288C22.2394 28.4817 23.7463 29.9326 25.5717 29.9502C26.491 29.946 27.2951 29.5331 27.8692 28.9397C28.4459 28.3413 28.8295 27.5331 28.8295 26.6288C28.7928 24.8394 27.3694 23.3935 25.5508 23.3526Z" fill="white"/>
<path d="M15.6595 16.8213C16.5788 16.8171 17.3828 16.4042 17.9579 15.8108C18.5337 15.2158 18.9165 14.4059 18.9165 13.5007C18.8806 11.7113 17.4555 10.2646 15.6386 10.2262C13.8575 10.2345 12.3239 11.6378 12.3038 13.5007C12.3272 15.3528 13.8333 16.8062 15.6595 16.8213Z" fill="white"/>
<path d="M15.6388 23.3526C13.8577 23.3626 12.3241 24.7642 12.3032 26.6288C12.3274 28.4817 13.8335 29.9326 15.6597 29.9502C16.579 29.946 17.3831 29.5331 17.9572 28.9397C18.5339 28.3413 18.9167 27.5331 18.9167 26.6288C18.8808 24.8394 17.4558 23.3935 15.6388 23.3526Z" fill="white"/>
<path d="M16.9844 1.74102C10.2455 3.77531 8.6199 9.47282 6.71432 15.4319C4.6792 21.8123 3.32607 27.483 7.31859 31.9862L6.17274 33.0117C0.156795 26.9799 -1.18547 20.3806 0.953293 13.6851C3.57179 5.4828 9.25509 1.4159 16.6108 0.000923161L16.9844 1.74102Z" fill="white"/>
<path d="M34.4187 7.05272C39.6014 12.4343 41.8722 19.0211 39.2537 27.2243C37.1124 33.9189 32.1855 38.5315 23.7751 40L23.4332 38.504C29.3063 37.1191 31.501 31.7158 33.537 25.3371C35.4425 19.3788 37.4225 13.7933 33.109 8.25457L34.4187 7.05272Z" fill="white"/>
<path d="M102.096 35.1514V4.35456H106.575L116.758 19.936C119.115 23.5457 120.954 26.7894 122.462 29.9428L122.556 29.8968C122.179 25.7848 122.085 22.038 122.085 17.2398V4.35456H125.951V35.1514H121.802L111.714 19.5248C109.497 16.0981 107.376 12.5795 105.773 9.24387L105.632 9.28983C105.867 13.1737 105.961 16.8745 105.961 21.992V35.1514H102.096Z" fill="white"/>
<path d="M135.638 35.1514H131.537V4.35459H135.638V35.1514Z" fill="white"/>
<path d="M162.204 30.9861C160.047 31.8068 158.183 32.1503 155.827 32.1503C148.603 32.1503 143.897 27.0713 143.897 19.3353C143.897 12.2989 148.557 7.26584 155.082 7.26584C157.738 7.26584 159.802 7.82164 161.868 9.09536L162.919 5.6461C162.311 5.29591 161.769 5.06106 161 4.79611C159.183 4.09657 157.225 3.77061 155.221 3.77061C146.414 3.77061 139.749 10.5739 139.749 19.5685C139.749 29.0287 146.32 35.6924 155.594 35.6924C157.039 35.6924 158.297 35.5528 159.835 35.18C161.089 34.8758 161.816 34.6334 163.053 34.0994L162.204 30.9861Z" fill="white"/>
</g>
</g>
<defs>
<clipPath id="clip0_393_13801">
<rect width="163.053" height="40" fill="white"/>
</clipPath>
</defs>
</svg>
