<svg width="179" height="142" viewBox="0 0 179 142" fill="none" xmlns="http://www.w3.org/2000/svg">
<path d="M7.295 55.0209C7.295 53.2504 8.64953 51.8443 10.42 51.8443C12.1888 51.8443 13.5967 53.2487 13.5967 55.0209V56.372C15.362 53.8246 17.9164 51.5865 22.1845 51.5865C28.3744 51.5865 31.9705 55.7498 31.9705 62.1047V76.7759C31.9705 78.5499 30.6177 79.901 28.842 79.901C27.0732 79.901 25.6654 78.5499 25.6654 76.7759V64.0265C25.6654 59.7566 23.5305 57.3106 19.7883 57.3106C16.1441 57.3106 13.5967 59.8615 13.5967 64.1279V76.7759C13.5967 78.5499 12.1888 79.901 10.42 79.901C8.70282 79.901 7.295 78.5499 7.295 76.7759L7.295 55.0209ZM36.4432 44.5096C36.4432 42.7391 37.7977 41.3828 39.5631 41.3828C41.337 41.3828 42.7448 42.7391 42.7448 44.5096V56.7382C44.7698 53.8778 47.6353 51.583 52.1131 51.583C58.566 51.583 64.8608 56.6866 64.8608 65.8451V65.9517C64.8608 75.0587 58.6176 80.219 52.1131 80.219C47.5287 80.219 44.6666 77.9242 42.7448 75.375V76.7759C42.7448 78.4949 41.337 79.901 39.5631 79.901C37.851 79.901 36.4432 78.4949 36.4432 76.7759V44.5096ZM58.4612 65.9517V65.8451C58.4612 60.5405 54.8686 57.0493 50.6022 57.0493C46.3306 57.0493 42.5884 60.592 42.5884 65.8451V65.9517C42.5884 71.2083 46.3306 74.7441 50.6022 74.7441C54.9236 74.7441 58.4612 71.3698 58.4612 65.9517ZM68.2506 55.0209C68.2506 53.2504 69.6 51.8443 71.3722 51.8443C73.1427 51.8443 74.5488 53.2487 74.5488 55.0209V56.372C76.3176 53.8246 78.8651 51.5865 83.1367 51.5865C89.3283 51.5865 92.9192 55.7498 92.9192 62.1047V76.7759C92.9192 78.5499 91.5664 79.901 89.7959 79.901C88.0236 79.901 86.6193 78.5499 86.6193 76.7759V64.0265C86.6193 59.7566 84.4878 57.3106 80.7405 57.3106C77.0946 57.3106 74.5488 59.8615 74.5488 64.1279V76.7759C74.5488 78.5499 73.1444 79.901 71.3722 79.901C69.655 79.901 68.2506 78.5499 68.2506 76.7759V55.0209ZM92.1921 45.2797H90.7121C90.4319 45.2797 90.2136 45.0528 90.2136 44.7846C90.2136 44.5182 90.4319 44.2844 90.7121 44.2844H94.7619C95.0266 44.2844 95.2449 44.5182 95.2449 44.7846C95.2449 45.0528 95.0266 45.2797 94.7619 45.2797H93.275V49.895C93.275 50.1941 93.0241 50.4314 92.7318 50.4314C92.6612 50.4319 92.5911 50.4184 92.5257 50.3916C92.4603 50.3649 92.4009 50.3254 92.3508 50.2755C92.3008 50.2257 92.2611 50.1663 92.2342 50.101C92.2072 50.0357 92.1935 49.9657 92.1938 49.895L92.1921 45.2797ZM96.3451 44.7898C96.3451 44.4941 96.5823 44.2552 96.8848 44.2552H96.9983C97.232 44.2552 97.3867 44.3721 97.4916 44.5371L99.3378 47.4318L101.196 44.5302C101.308 44.3463 101.464 44.2569 101.684 44.2569H101.794C102.102 44.2569 102.334 44.4958 102.334 44.7915V49.8968C102.334 50.1941 102.1 50.4331 101.794 50.4331C101.507 50.4331 101.26 50.1855 101.26 49.8968V46.2371L99.7744 48.4769C99.6609 48.654 99.5234 48.7554 99.3188 48.7554C99.1315 48.7554 98.9922 48.6522 98.8788 48.4769L97.3953 46.2577V49.9036C97.3953 50.1993 97.1633 50.4296 96.8693 50.4296C96.572 50.4296 96.3433 50.1993 96.3433 49.9036L96.3451 44.7898Z" fill="white"/>
<path d="M154.339 67.5765C154.885 67.2808 155.262 66.705 155.258 66.0295C155.262 65.3591 154.885 64.7815 154.339 64.4772C154.825 64.0819 155.092 63.4407 154.971 62.7892C154.856 62.1274 154.392 61.6238 153.797 61.4141C154.208 60.9414 154.361 60.2675 154.131 59.6436C153.902 59.0076 153.354 58.5916 152.732 58.4919C153.055 57.9556 153.094 57.2697 152.752 56.6887C152.42 56.106 151.81 55.7931 151.181 55.8C151.405 55.2138 151.319 54.5314 150.882 54.0192C150.456 53.5035 149.797 53.3006 149.18 53.4107C149.301 52.8039 149.096 52.1472 148.582 51.7089C148.063 51.2826 147.387 51.1932 146.796 51.4167C146.81 50.791 146.495 50.179 145.909 49.8473C145.335 49.5104 144.642 49.5413 144.102 49.8628C144.003 49.2456 143.592 48.699 142.959 48.467C142.328 48.2332 141.658 48.3931 141.185 48.797C140.976 48.2091 140.474 47.7433 139.814 47.6212C139.148 47.5061 138.518 47.7759 138.122 48.2538C137.815 47.7158 137.244 47.3428 136.57 47.3428C135.896 47.3428 135.326 47.7158 135.016 48.2624C134.616 47.7759 133.981 47.5078 133.323 47.6212C132.658 47.7416 132.159 48.2091 131.956 48.797C131.479 48.3931 130.808 48.2383 130.179 48.467C129.546 48.699 129.13 49.2439 129.036 49.8645C128.498 49.543 127.803 49.5086 127.226 49.8456C126.641 50.1773 126.327 50.791 126.339 51.4184C125.754 51.1949 125.07 51.2809 124.556 51.7072C124.039 52.1472 123.841 52.8039 123.956 53.4158C123.341 53.3006 122.683 53.5018 122.253 54.0174C121.82 54.5314 121.734 55.2121 121.957 55.7983C121.335 55.7931 120.721 56.1042 120.379 56.687C120.048 57.268 120.084 57.9538 120.41 58.4901C119.786 58.5933 119.233 59.0093 119.009 59.6418C118.779 60.2658 118.935 60.9396 119.341 61.4124C118.748 61.6221 118.279 62.1257 118.162 62.7875C118.047 63.4407 118.315 64.0802 118.803 64.4755C118.253 64.7815 117.88 65.3591 117.88 66.0277C117.88 66.7016 118.253 67.2808 118.803 67.5748C118.315 67.9753 118.047 68.613 118.162 69.2731C118.277 69.9349 118.748 70.4386 119.341 70.6414C118.93 71.1072 118.774 71.7896 119.009 72.4102C119.234 73.0445 119.786 73.457 120.405 73.5584C120.085 74.1016 120.049 74.7841 120.381 75.3702C120.72 75.9478 121.335 76.2641 121.959 76.2538C121.736 76.8399 121.821 77.5292 122.255 78.038C122.684 78.5503 123.343 78.7531 123.958 78.6379C123.834 79.2516 124.041 79.9065 124.558 80.3397C125.072 80.7711 125.756 80.8588 126.341 80.6353C126.327 81.2593 126.643 81.8747 127.228 82.2099C127.805 82.5399 128.498 82.5107 129.032 82.1944C129.132 82.8081 129.548 83.3582 130.181 83.5816C130.81 83.8171 131.48 83.6641 131.956 83.2516C132.161 83.8481 132.659 84.3139 133.325 84.4325C133.985 84.5494 134.617 84.2795 135.018 83.7931C135.32 84.3397 135.898 84.7127 136.572 84.7127C137.246 84.7127 137.821 84.3397 138.124 83.7931C138.519 84.2795 139.152 84.5494 139.812 84.4359C140.475 84.3156 140.977 83.8481 141.187 83.2533C141.662 83.6659 142.33 83.824 142.958 83.5885C143.594 83.3599 144.008 82.8115 144.106 82.1962C144.642 82.5124 145.337 82.5468 145.911 82.2168C146.494 81.8764 146.81 81.261 146.798 80.6405C147.389 80.8605 148.065 80.778 148.584 80.3466C149.098 79.9082 149.302 79.2533 149.182 78.6448C149.799 78.7548 150.457 78.552 150.884 78.0397C151.315 77.5309 151.406 76.8416 151.183 76.2606C151.812 76.2658 152.422 75.9495 152.754 75.3719C153.096 74.7858 153.058 74.1051 152.733 73.5602C153.356 73.4587 153.906 73.0462 154.133 72.4171C154.363 71.7914 154.205 71.1141 153.799 70.6431C154.394 70.442 154.856 69.9366 154.973 69.2783C155.09 68.6148 154.825 67.9805 154.339 67.5765ZM151.253 68.6199C151.155 69.1614 151.322 69.6822 151.65 70.069C151.172 70.2478 150.765 70.6122 150.581 71.1227C150.392 71.6418 150.463 72.1798 150.722 72.6216C150.217 72.7127 149.754 73.0084 149.481 73.4794C149.208 73.9572 149.18 74.5021 149.357 74.9731C148.847 74.9783 148.341 75.1863 147.989 75.6074C147.638 76.0251 147.52 76.5632 147.609 77.0634C147.102 76.9809 146.574 77.0978 146.146 77.4484C145.732 77.8042 145.531 78.3079 145.526 78.8167C145.048 78.6431 144.498 78.6637 144.023 78.9387C143.547 79.2121 143.252 79.6762 143.167 80.1781C142.726 79.9203 142.186 79.8532 141.668 80.0354C141.153 80.228 140.785 80.6319 140.61 81.1029C140.216 80.7815 139.695 80.6096 139.155 80.711C138.616 80.8021 138.182 81.1321 137.928 81.5739C137.598 81.1923 137.111 80.9344 136.568 80.9344C136.023 80.9344 135.534 81.1871 135.207 81.5739C134.949 81.1321 134.516 80.8021 133.974 80.711C133.436 80.6078 132.914 80.7763 132.527 81.1029C132.348 80.6268 131.984 80.2228 131.466 80.0354C130.947 79.8481 130.409 79.9203 129.964 80.173C129.876 79.6762 129.586 79.2121 129.112 78.9387C128.635 78.6637 128.09 78.6431 127.613 78.8167C127.613 78.3079 127.401 77.7991 126.985 77.4484C126.562 77.0978 126.029 76.9774 125.529 77.0634C125.617 76.5632 125.5 76.0251 125.139 75.6074C124.788 75.1863 124.292 74.9783 123.783 74.9731C123.95 74.5021 123.927 73.9572 123.656 73.4794C123.379 73.0032 122.918 72.7127 122.416 72.6216C122.671 72.1798 122.741 71.6418 122.554 71.1244C122.368 70.6122 121.962 70.246 121.486 70.069C121.815 69.6822 121.978 69.1631 121.88 68.6199C121.785 68.0784 121.454 67.6453 121.012 67.3909C121.402 67.0625 121.655 66.5761 121.653 66.0277C121.653 65.4794 121.402 64.9981 121.012 64.6646C121.459 64.4119 121.787 63.9839 121.885 63.4356C121.98 62.8975 121.816 62.3801 121.488 61.9865C121.964 61.8112 122.37 61.4467 122.555 60.9311C122.743 60.4171 122.672 59.8773 122.418 59.4287C122.92 59.3393 123.381 59.0454 123.657 58.5761C123.929 58.1034 123.951 57.5482 123.784 57.072C124.293 57.072 124.794 56.8657 125.146 56.4446C125.502 56.0252 125.617 55.4906 125.531 54.9955C126.031 55.0798 126.564 54.9577 126.987 54.6036C127.403 54.2564 127.613 53.7493 127.614 53.2439C128.092 53.4089 128.637 53.3883 129.113 53.115C129.591 52.8417 129.878 52.3844 129.973 51.8791C130.411 52.1352 130.949 52.204 131.468 52.0183C131.986 51.8292 132.353 51.4287 132.529 50.9491C132.916 51.274 133.436 51.4407 133.976 51.3428C134.516 51.2482 134.949 50.9182 135.207 50.4764C135.535 50.8683 136.025 51.1193 136.57 51.1193C137.113 51.1193 137.6 50.8683 137.93 50.4764C138.182 50.9165 138.616 51.2465 139.157 51.341C139.695 51.4373 140.218 51.274 140.611 50.9474C140.788 51.4218 141.149 51.8258 141.67 52.0183C142.188 52.204 142.727 52.1335 143.169 51.8791C143.253 52.3827 143.549 52.8417 144.025 53.1133C144.5 53.3866 145.044 53.4089 145.527 53.2422C145.533 53.7476 145.734 54.2529 146.148 54.6036C146.576 54.9543 147.104 55.0763 147.611 54.9904C147.52 55.4889 147.64 56.0217 147.991 56.4446C148.343 56.8657 148.848 57.072 149.359 57.072C149.182 57.5482 149.209 58.1017 149.483 58.5761C149.754 59.0454 150.218 59.3393 150.724 59.4287C150.464 59.8773 150.394 60.4154 150.583 60.9276C150.767 61.4467 151.174 61.8129 151.652 61.9865C151.324 62.3801 151.157 62.8958 151.255 63.4356C151.355 63.9822 151.688 64.4102 152.125 64.6646C151.735 64.9981 151.484 65.4794 151.482 66.0277C151.484 66.5761 151.735 67.0625 152.126 67.3909C151.686 67.6453 151.356 68.0784 151.253 68.6199Z" fill="white"/>
<path d="M124.495 82.5691C124.495 83.5695 123.683 84.3843 122.676 84.3843C121.679 84.3843 120.862 83.5695 120.862 82.5691C120.862 81.5618 121.679 80.7539 122.676 80.7539C123.683 80.7539 124.495 81.5618 124.495 82.5691Z" fill="white"/>
<path d="M121.84 79.9118C121.84 80.9192 121.026 81.7271 120.022 81.7271C119.023 81.7271 118.205 80.9192 118.205 79.9118C118.205 78.9131 119.023 78.1035 120.022 78.1035C121.026 78.1052 121.84 78.9131 121.84 79.9118Z" fill="white"/>
<path d="M119.675 76.822C119.675 77.819 118.865 78.6372 117.861 78.6372C116.861 78.6372 116.048 77.819 116.048 76.822C116.048 75.8198 116.861 75.0068 117.861 75.0068C118.865 75.0085 119.675 75.8198 119.675 76.822ZM118.083 73.4133C118.083 74.4155 117.272 75.2216 116.271 75.2216C115.271 75.2216 114.454 74.4155 114.454 73.4133C114.454 72.406 115.271 71.5964 116.271 71.5964C117.272 71.5964 118.083 72.406 118.083 73.4133ZM117.108 69.7726C117.108 70.773 116.299 71.5929 115.296 71.5929C114.294 71.5929 113.485 70.773 113.485 69.7726C113.485 68.7773 114.294 67.9608 115.296 67.9608C116.299 67.9608 117.108 68.7773 117.108 69.7726ZM116.782 66.027C116.782 67.024 115.972 67.8422 114.973 67.8422C113.964 67.8422 113.155 67.024 113.155 66.027C113.155 65.03 113.964 64.2101 114.973 64.2101C115.974 64.2101 116.782 65.03 116.782 66.027ZM117.108 62.2745C117.108 63.2818 116.299 64.0932 115.296 64.0932C114.294 64.0932 113.485 63.2818 113.485 62.2745C113.485 61.2775 114.294 60.4628 115.296 60.4628C116.299 60.4628 117.108 61.2758 117.108 62.2745ZM118.083 58.6372C118.083 59.6445 117.272 60.4542 116.271 60.4542C115.271 60.4542 114.454 59.6445 114.454 58.6372C114.454 57.6368 115.271 56.8238 116.271 56.8238C117.272 56.8238 118.083 57.6368 118.083 58.6372ZM119.675 55.2286C119.675 56.2324 118.865 57.0438 117.861 57.0438C116.861 57.0438 116.048 56.2324 116.048 55.2286C116.048 54.2281 116.861 53.4082 117.861 53.4082C118.865 53.4082 119.675 54.2281 119.675 55.2286Z" fill="white"/>
<path d="M121.84 52.1463C121.84 53.1433 121.026 53.9598 120.022 53.9598C119.023 53.9598 118.205 53.1433 118.205 52.1463C118.205 51.1425 119.023 50.3294 120.022 50.3294C121.026 50.3294 121.84 51.1425 121.84 52.1463ZM138.382 44.43C138.382 45.427 137.571 46.2452 136.57 46.2452C135.566 46.2452 134.757 45.427 134.757 44.43C134.757 43.4295 135.566 42.6113 136.57 42.6113C137.571 42.6113 138.382 43.4295 138.382 44.43ZM142.131 44.7549C142.131 45.7536 141.323 46.5666 140.316 46.5666C139.317 46.5666 138.502 45.7536 138.502 44.7549C138.502 43.751 139.317 42.9379 140.316 42.9379C141.325 42.9379 142.131 43.751 142.131 44.7549ZM152.271 49.4785C152.271 50.4824 151.465 51.2955 150.458 51.2955C149.461 51.2955 148.641 50.4824 148.641 49.4785C148.641 48.4764 149.461 47.6633 150.458 47.6633C151.465 47.6633 152.271 48.4764 152.271 49.4785Z" fill="white"/>
<path d="M154.93 52.148C154.93 53.145 154.122 53.9615 153.118 53.9615C152.113 53.9615 151.301 53.145 151.301 52.148C151.301 51.1441 152.113 50.3311 153.118 50.3311C154.122 50.3311 154.93 51.1441 154.93 52.148Z" fill="white"/>
<path d="M157.075 55.2286C157.075 56.2324 156.259 57.0438 155.258 57.0438C154.256 57.0438 153.443 56.2324 153.443 55.2286C153.443 54.2281 154.256 53.4082 155.258 53.4082C156.259 53.4082 157.075 54.2281 157.075 55.2286ZM158.681 58.6372C158.681 59.6445 157.866 60.4542 156.867 60.4542C155.867 60.4542 155.05 59.6445 155.05 58.6372C155.05 57.6368 155.867 56.8238 156.867 56.8238C157.868 56.8255 158.681 57.6368 158.681 58.6372ZM159.657 62.2745C159.657 63.2818 158.848 64.0932 157.84 64.0932C156.842 64.0932 156.028 63.2818 156.028 62.2745C156.028 61.2775 156.842 60.4628 157.84 60.4628C158.848 60.4628 159.657 61.2758 159.657 62.2745ZM159.984 66.027C159.984 67.024 159.172 67.8422 158.167 67.8422C157.166 67.8422 156.357 67.024 156.357 66.027C156.357 65.03 157.166 64.2101 158.167 64.2101C159.172 64.2101 159.984 65.03 159.984 66.027ZM159.657 69.7726C159.657 70.773 158.848 71.5929 157.84 71.5929C156.842 71.5929 156.028 70.773 156.028 69.7726C156.028 68.7773 156.842 67.9608 157.84 67.9608C158.848 67.9608 159.657 68.7773 159.657 69.7726ZM158.679 73.4133C158.679 74.4155 157.871 75.2216 156.867 75.2216C155.865 75.2216 155.05 74.4155 155.05 73.4133C155.05 72.406 155.865 71.5964 156.867 71.5964C157.873 71.5964 158.679 72.406 158.679 73.4133ZM157.093 76.822C157.093 77.819 156.278 78.6372 155.274 78.6372C154.282 78.6372 153.459 77.819 153.459 76.822C153.459 75.8198 154.282 75.0068 155.274 75.0068C156.278 75.0085 157.093 75.8198 157.093 76.822Z" fill="white"/>
<path d="M154.93 79.9011C154.93 80.9033 154.122 81.7215 153.122 81.7215C152.114 81.7215 151.301 80.9033 151.301 79.9011C151.301 78.9007 152.114 78.0928 153.122 78.0928C154.122 78.0945 154.93 78.9007 154.93 79.9011Z" fill="white"/>
<path d="M152.266 82.5691C152.266 83.5661 151.46 84.3843 150.456 84.3843C149.459 84.3843 148.635 83.5661 148.635 82.5691C148.635 81.567 149.459 80.7539 150.456 80.7539C151.46 80.7539 152.266 81.567 152.266 82.5691Z" fill="white"/>
<path d="M149.182 84.73C149.182 85.7321 148.371 86.5452 147.365 86.5452C146.368 86.5452 145.553 85.7321 145.553 84.73C145.553 83.7296 146.368 82.9165 147.365 82.9165C148.371 82.9165 149.182 83.7296 149.182 84.73ZM145.768 86.3217C145.768 87.329 144.96 88.1352 143.957 88.1352C142.956 88.1352 142.141 87.329 142.141 86.3217C142.141 85.3213 142.956 84.5065 143.957 84.5065C144.96 84.5065 145.768 85.3213 145.768 86.3217ZM134.63 44.7559C134.63 44.9942 134.584 45.2303 134.493 45.4507C134.403 45.671 134.269 45.8712 134.1 46.0396C133.932 46.2081 133.731 46.3415 133.511 46.4321C133.291 46.5227 133.054 46.5688 132.816 46.5676C131.819 46.5676 130.999 45.7632 130.999 44.7559C130.999 43.7572 131.819 42.9424 132.816 42.9424C133.823 42.9424 134.63 43.7572 134.63 44.7559Z" fill="white"/>
<path d="M117.916 82.9909C117.916 83.859 117.21 84.5568 116.341 84.5568C115.479 84.5568 114.779 83.859 114.779 82.9909C114.779 82.1228 115.479 81.4266 116.341 81.4266C117.21 81.4266 117.916 82.1228 117.916 82.9909ZM151.339 88.8817C151.339 89.7515 150.634 90.4563 149.772 90.4563C148.904 90.4563 148.206 89.7515 148.206 88.8817C148.206 88.0222 148.904 87.3209 149.772 87.3209C150.634 87.3209 151.339 88.0222 151.339 88.8817ZM155.109 86.2483C155.109 87.1129 154.402 87.8125 153.538 87.8125C152.675 87.8125 151.975 87.1129 151.975 86.2483C151.975 85.3802 152.675 84.6789 153.538 84.6789C154.402 84.6789 155.109 85.3802 155.109 86.2483ZM158.365 82.9909C158.365 83.859 157.655 84.5603 156.792 84.5603C155.927 84.5603 155.231 83.859 155.231 82.9909C155.231 82.128 155.927 81.4318 156.792 81.4318C157.655 81.4318 158.365 82.128 158.365 82.9909ZM161.001 79.2264C161.001 80.091 160.297 80.7924 159.434 80.7924C159.228 80.7926 159.024 80.7523 158.834 80.6737C158.644 80.595 158.471 80.4797 158.326 80.3342C158.18 80.1888 158.065 80.0161 157.987 79.826C157.908 79.6358 157.868 79.4321 157.868 79.2264C157.868 78.3566 158.566 77.657 159.434 77.657C160.297 77.657 161.001 78.3566 161.001 79.2264ZM162.946 75.0493C162.946 75.9174 162.244 76.6187 161.385 76.6187C160.513 76.6187 159.812 75.9174 159.812 75.0493C159.812 74.1847 160.513 73.4834 161.385 73.4834C162.244 73.4834 162.946 74.1847 162.946 75.0493ZM164.133 70.6076C164.133 71.4774 163.434 72.1735 162.569 72.1735C162.363 72.1741 162.159 72.134 161.969 72.0555C161.779 71.977 161.606 71.8616 161.461 71.7161C161.315 71.5706 161.2 71.3977 161.121 71.2075C161.043 71.0173 161.003 70.8134 161.003 70.6076C161.003 69.7447 161.703 69.0399 162.569 69.0399C163.434 69.0399 164.133 69.7447 164.133 70.6076ZM164.536 66.0266C164.536 66.8929 163.833 67.5926 162.977 67.5926C162.77 67.5935 162.566 67.5536 162.375 67.4753C162.185 67.397 162.011 67.2818 161.865 67.1363C161.719 66.9908 161.604 66.8178 161.525 66.6274C161.446 66.4369 161.405 66.2327 161.405 66.0266C161.405 65.1602 162.103 64.4624 162.977 64.4624C163.831 64.4624 164.536 65.1602 164.536 66.0266ZM164.133 61.4422C164.133 62.3068 163.434 63.0047 162.569 63.0047C161.703 63.0047 161.003 62.3068 161.003 61.4422C161.003 60.5741 161.703 59.8779 162.569 59.8779C163.434 59.8779 164.133 60.5741 164.133 61.4422ZM162.947 56.997C162.947 57.8599 162.241 58.5612 161.38 58.5612C160.513 58.5612 159.815 57.8599 159.815 56.997C159.815 56.1323 160.513 55.4276 161.38 55.4276C162.241 55.4276 162.947 56.1323 162.947 56.997ZM161.001 52.8251C161.001 53.6931 160.297 54.3893 159.435 54.3893C159.23 54.3902 159.026 54.3504 158.835 54.2722C158.645 54.1939 158.472 54.0788 158.326 53.9334C158.18 53.788 158.065 53.6152 157.986 53.425C157.908 53.2348 157.867 53.0309 157.868 52.8251C157.868 51.957 158.566 51.2591 159.435 51.2591C160.297 51.2591 161.001 51.9587 161.001 52.8251ZM158.365 49.0571C158.365 49.9235 157.655 50.6214 156.797 50.6214C156.591 50.6221 156.387 50.5822 156.197 50.5038C156.007 50.4255 155.834 50.3103 155.689 50.165C155.543 50.0196 155.428 49.8469 155.349 49.6567C155.271 49.4666 155.23 49.2628 155.231 49.0571C155.231 48.1874 155.927 47.4946 156.797 47.4946C157.655 47.4946 158.365 48.1874 158.365 49.0571ZM155.109 45.7997C155.109 46.6695 154.402 47.3674 153.538 47.3674C152.675 47.3674 151.975 46.6695 151.975 45.7997C151.975 44.9368 152.675 44.2372 153.538 44.2372C154.402 44.2355 155.109 44.9368 155.109 45.7997ZM151.339 43.1594C151.339 44.0275 150.634 44.7288 149.772 44.7288C148.904 44.7288 148.206 44.0275 148.206 43.1594C148.206 42.2914 148.904 41.5986 149.772 41.5986C150.634 41.5986 151.339 42.2931 151.339 43.1594ZM115.271 79.2264C115.271 80.091 114.568 80.7855 113.711 80.7855C112.838 80.7855 112.137 80.091 112.137 79.2264C112.137 78.3514 112.838 77.657 113.711 77.657C114.568 77.657 115.271 78.3514 115.271 79.2264ZM113.328 75.0493C113.328 75.914 112.625 76.6187 111.76 76.6187C110.894 76.6187 110.198 75.914 110.198 75.0493C110.198 74.1847 110.894 73.4834 111.76 73.4834C112.623 73.4834 113.328 74.1847 113.328 75.0493ZM112.132 70.6059C112.133 70.8117 112.093 71.0157 112.015 71.2061C111.936 71.3965 111.821 71.5695 111.676 71.7152C111.53 71.8609 111.358 71.9764 111.167 72.0551C110.977 72.1337 110.773 72.174 110.568 72.1735C109.701 72.1735 109.008 71.4774 109.008 70.6059C109.008 69.7412 109.701 69.0399 110.568 69.0399C111.434 69.0399 112.132 69.7412 112.132 70.6059ZM111.735 66.0266C111.735 66.8929 111.035 67.5926 110.17 67.5926C109.965 67.593 109.761 67.5528 109.57 67.4743C109.38 67.3957 109.207 67.2804 109.062 67.135C108.916 66.9895 108.8 66.8167 108.722 66.6265C108.643 66.4363 108.603 66.2324 108.603 66.0266C108.603 65.1602 109.302 64.4624 110.17 64.4624C111.035 64.4624 111.735 65.1602 111.735 66.0266ZM112.132 61.4422C112.132 61.6476 112.092 61.851 112.013 62.0408C111.935 62.2306 111.819 62.403 111.674 62.5481C111.529 62.6933 111.356 62.8084 111.166 62.8867C110.976 62.965 110.773 63.0051 110.568 63.0047C110.362 63.005 110.159 62.9649 109.97 62.8864C109.78 62.808 109.608 62.6928 109.463 62.5476C109.318 62.4024 109.203 62.23 109.125 62.0403C109.047 61.8506 109.008 61.6473 109.008 61.4422C109.008 60.5775 109.701 59.8779 110.568 59.8779C111.434 59.8779 112.132 60.5775 112.132 61.4422ZM113.328 56.997C113.328 57.8582 112.625 58.5646 111.76 58.5646C110.894 58.5646 110.198 57.8582 110.198 56.997C110.198 56.1306 110.894 55.4293 111.76 55.4293C112.623 55.4293 113.328 56.1306 113.328 56.997Z" fill="white"/>
<path d="M159.353 99.777C159.353 100.284 158.951 100.692 158.446 100.692C157.937 100.692 157.535 100.284 157.535 99.777C157.535 99.2785 157.937 98.8677 158.446 98.8677C158.951 98.8677 159.353 99.2785 159.353 99.777ZM155.712 99.777C155.712 100.284 155.303 100.692 154.805 100.692C154.685 100.692 154.566 100.668 154.455 100.622C154.344 100.576 154.243 100.509 154.158 100.424C154.073 100.339 154.005 100.238 153.96 100.127C153.914 100.016 153.89 99.8972 153.89 99.777C153.89 99.2785 154.3 98.8677 154.805 98.8677C155.303 98.8677 155.712 99.2785 155.712 99.777ZM157.981 102.785C157.981 103.028 157.885 103.26 157.713 103.431C157.542 103.603 157.309 103.699 157.067 103.7C156.565 103.7 156.159 103.289 156.159 102.785C156.159 102.283 156.565 101.872 157.067 101.872C157.571 101.872 157.981 102.283 157.981 102.785ZM160.147 93.1247C160.147 93.6232 159.738 94.034 159.235 94.034C158.728 94.034 158.322 93.6232 158.322 93.1247C158.322 92.6228 158.728 92.2154 159.235 92.2154C159.738 92.2137 160.147 92.6228 160.147 93.1247ZM164.582 88.6898C164.582 89.1918 164.171 89.6026 163.675 89.6026C163.169 89.6026 162.76 89.1918 162.76 88.6898C162.76 88.181 163.169 87.7754 163.675 87.7754C164.171 87.7736 164.582 88.181 164.582 88.6898ZM168.182 83.5416C168.182 84.0487 167.773 84.4612 167.272 84.4612C166.767 84.4612 166.361 84.0487 166.361 83.5416C166.361 83.0379 166.767 82.6374 167.272 82.6374C167.771 82.6357 168.182 83.0379 168.182 83.5416ZM170.595 78.0994C170.595 78.6013 170.189 79.0122 169.686 79.0122C169.177 79.0122 168.768 78.6013 168.768 78.0994C168.768 77.5906 169.177 77.1901 169.686 77.1901C170.189 77.1884 170.595 77.5906 170.595 78.0994ZM113.903 86.077C113.903 86.7577 113.349 87.3112 112.663 87.3112C111.988 87.3112 111.434 86.7595 111.434 86.077C111.434 85.3946 111.988 84.8411 112.663 84.8411C113.347 84.8411 113.903 85.3963 113.903 86.077ZM110.781 81.6232C110.781 82.3005 110.227 82.854 109.548 82.854C108.868 82.854 108.319 82.3005 108.319 81.6232C108.319 80.9425 108.868 80.389 109.548 80.389C110.227 80.3908 110.781 80.9443 110.781 81.6232ZM108.483 76.6899C108.483 77.3757 107.934 77.9241 107.248 77.9241C107.086 77.9244 106.926 77.8928 106.776 77.8309C106.626 77.769 106.49 77.678 106.375 77.5633C106.261 77.4486 106.17 77.3124 106.109 77.1625C106.047 77.0126 106.015 76.852 106.016 76.6899C106.016 76.0126 106.566 75.4608 107.248 75.4608C107.934 75.4608 108.483 76.0143 108.483 76.6899ZM107.078 71.4436C107.078 72.1243 106.527 72.6761 105.841 72.6761C105.16 72.6761 104.606 72.126 104.606 71.4436C104.606 70.7578 105.16 70.206 105.841 70.206C106.527 70.2077 107.078 70.7578 107.078 71.4436ZM106.6 66.0272C106.6 66.7079 106.047 67.2631 105.368 67.2631C104.687 67.2631 104.134 66.7096 104.134 66.0272C104.134 65.3465 104.686 64.7913 105.368 64.7913C106.047 64.7913 106.6 65.3482 106.6 66.0272ZM107.078 60.6108C107.078 61.2915 106.527 61.8433 105.841 61.8433C105.16 61.8433 104.606 61.2932 104.606 60.6108C104.606 60.283 104.737 59.9687 104.968 59.7369C105.2 59.5051 105.515 59.3749 105.842 59.3749C106.17 59.3749 106.485 59.5051 106.716 59.7369C106.948 59.9687 107.078 60.283 107.078 60.6108ZM157.858 42.1717C157.858 42.8489 157.306 43.4093 156.624 43.4093C155.941 43.4093 155.388 42.8489 155.388 42.1717C155.388 41.491 155.939 40.9357 156.624 40.9357C157.306 40.9357 157.858 41.491 157.858 42.1717ZM168.983 66.0255C168.983 66.7079 168.429 67.2631 167.75 67.2631C167.068 67.2631 166.513 66.7096 166.513 66.0255C166.513 65.3448 167.066 64.7913 167.75 64.7913C168.428 64.7913 168.983 65.3448 168.983 66.0255ZM168.531 71.4436C168.531 72.1226 167.975 72.6761 167.3 72.6761C166.619 72.6761 166.064 72.1226 166.064 71.4436C166.064 70.7612 166.619 70.2094 167.3 70.2094C167.975 70.2111 168.531 70.7612 168.531 71.4436ZM167.126 76.6899C167.126 77.3757 166.568 77.9241 165.889 77.9241C165.726 77.9246 165.565 77.8931 165.415 77.8313C165.265 77.7696 165.129 77.6787 165.014 77.564C164.899 77.4493 164.808 77.313 164.746 77.163C164.684 77.013 164.652 76.8522 164.653 76.6899C164.653 76.0126 165.205 75.4608 165.889 75.4608C166.568 75.4608 167.126 76.0143 167.126 76.6899ZM164.826 81.6232C164.826 82.3005 164.271 82.854 163.596 82.854C162.91 82.854 162.358 82.3005 162.358 81.6232C162.358 80.9425 162.908 80.389 163.596 80.389C164.269 80.3908 164.826 80.9443 164.826 81.6232ZM161.705 86.077C161.705 86.7577 161.151 87.3112 160.469 87.3112C159.788 87.3112 159.233 86.7595 159.233 86.077C159.233 85.3998 159.788 84.8463 160.469 84.8463C161.151 84.8463 161.705 85.4015 161.705 86.077ZM157.858 89.9223C157.858 90.603 157.308 91.1582 156.629 91.1582C156.301 91.1582 155.987 91.0281 155.755 90.7965C155.524 90.5649 155.394 90.2507 155.394 89.9232C155.394 89.5956 155.524 89.2815 155.755 89.0499C155.987 88.8182 156.301 88.6881 156.629 88.6881C157.308 88.6898 157.858 89.2468 157.858 89.9223ZM153.4 93.0422C153.4 93.7229 152.847 94.2798 152.171 94.2798C151.492 94.2798 150.937 93.7246 150.937 93.0422C150.937 92.3615 151.492 91.808 152.171 91.808C152.847 91.808 153.4 92.3615 153.4 93.0422ZM153.438 39.0621C153.438 39.7428 152.883 40.2946 152.202 40.2946C151.517 40.2946 150.965 39.7445 150.965 39.0621C150.965 38.3831 151.515 37.8262 152.202 37.8262C152.881 37.8262 153.438 38.3831 153.438 39.0621Z" fill="white"/>
<path d="M143.962 65.9358C143.962 69.9393 140.723 73.1829 136.718 73.1829C132.72 73.1829 129.476 69.9393 129.476 65.9358C129.476 61.9341 132.72 58.6905 136.718 58.6905C140.723 58.6922 143.962 61.9341 143.962 65.9358ZM125.318 59.1941C125.318 60.2839 126.207 61.1744 127.305 61.1744C128.403 61.1744 129.287 60.2822 129.287 59.1941C129.287 58.0974 128.403 57.207 127.305 57.207C126.207 57.207 125.318 58.0974 125.318 59.1941Z" fill="white"/>
<path d="M149.88 66.0263C149.88 65.0362 149.139 64.2438 148.189 64.1011C148.788 63.7556 149.199 63.1402 149.199 62.4097C149.199 61.356 148.376 60.512 147.334 60.4466C147.623 60.1046 147.821 59.6783 147.821 59.1935C147.821 58.0968 146.932 57.2064 145.837 57.2064C145.591 57.2064 145.363 57.2649 145.143 57.3457C145.179 57.1961 145.234 57.0517 145.234 56.8936C145.234 55.7952 144.347 54.9065 143.248 54.9065C142.734 54.9065 142.267 55.1179 141.916 55.4411C141.926 55.3671 141.963 55.2984 141.963 55.2279C141.963 54.1243 141.072 53.2391 139.977 53.2391C139.343 53.2391 138.801 53.5571 138.439 54.0178C138.176 53.2202 137.454 52.6357 136.572 52.6357C135.685 52.6357 134.96 53.2202 134.707 54.0178C134.348 53.5554 133.811 53.2391 133.168 53.2391C132.068 53.2391 131.183 54.1261 131.183 55.2279C131.183 55.2984 131.217 55.3671 131.224 55.4411C130.868 55.1179 130.409 54.9065 129.889 54.9065C128.794 54.9065 127.905 55.7969 127.905 56.8936C127.905 57.9903 128.795 58.8738 129.889 58.8738C130.985 58.8738 131.876 57.9903 131.876 56.8936C131.876 56.8111 131.84 56.7509 131.833 56.6735C132.185 56.9967 132.649 57.2099 133.168 57.2099C134.052 57.2099 134.779 56.6203 135.032 55.8158C135.396 56.2833 135.932 56.5996 136.572 56.5996C137.208 56.5996 137.744 56.2833 138.11 55.8192C138.366 56.6203 139.09 57.2099 139.977 57.2099C140.495 57.2099 140.952 56.9967 141.306 56.6735C141.301 56.7509 141.265 56.8111 141.265 56.8936C141.265 57.992 142.153 58.8738 143.248 58.8738C143.501 58.8738 143.726 58.8136 143.941 58.738C143.903 58.8876 143.853 59.0302 143.853 59.1935C143.853 60.2421 144.673 61.0844 145.717 61.1531C145.421 61.4952 145.229 61.9249 145.229 62.4097C145.229 63.4049 145.968 64.1853 146.917 64.3349C146.329 64.6718 145.911 65.2906 145.911 66.0263C145.911 66.762 146.329 67.374 146.917 67.7161C145.966 67.8639 145.229 68.6477 145.229 69.6378C145.229 70.126 145.421 70.5506 145.717 70.9013C144.673 70.97 143.853 71.802 143.853 72.8557C143.853 73.019 143.901 73.1634 143.941 73.3095C143.726 73.2339 143.501 73.172 143.248 73.172C142.152 73.172 141.265 74.0573 141.265 75.1539C141.265 75.2365 141.301 75.3018 141.306 75.3774C140.952 75.0525 140.493 74.8428 139.977 74.8428C139.09 74.8428 138.366 75.429 138.11 76.2266C137.744 75.7625 137.21 75.4427 136.572 75.4427C135.934 75.4427 135.396 75.7642 135.032 76.2266C134.779 75.429 134.052 74.8428 133.168 74.8428C132.648 74.8428 132.185 75.0508 131.833 75.3774C131.841 75.3018 131.876 75.2365 131.876 75.1539C131.876 74.0555 130.984 73.172 129.889 73.172C129.648 73.172 129.418 73.2339 129.201 73.3095C129.232 73.1634 129.29 73.019 129.29 72.8557C129.29 71.8037 128.464 70.97 127.427 70.9013C127.718 70.5506 127.91 70.126 127.91 69.6378C127.91 68.6477 127.171 67.8639 126.22 67.7161C126.808 67.374 127.231 66.7603 127.231 66.0263C127.231 65.2889 126.808 64.6718 126.22 64.3349C127.173 64.1853 127.91 63.4049 127.91 62.4097C127.91 61.3113 127.023 60.4277 125.928 60.4277C124.823 60.4277 123.941 61.313 123.941 62.4097C123.941 63.1419 124.354 63.7556 124.947 64.1011C123.998 64.2438 123.257 65.0362 123.257 66.0263C123.257 67.0147 124 67.8037 124.947 67.9498C124.354 68.2953 123.941 68.9107 123.941 69.6378C123.941 70.6933 124.768 71.5356 125.804 71.606C125.517 71.9498 125.321 72.3744 125.321 72.8574C125.321 73.9576 126.208 74.8445 127.308 74.8445C127.553 74.8445 127.783 74.7895 128.001 74.7019C127.963 74.8566 127.905 74.9975 127.905 75.1557C127.905 76.2592 128.795 77.1479 129.889 77.1479C130.411 77.1479 130.868 76.9348 131.224 76.6133C131.216 76.6838 131.183 76.7491 131.183 76.8265C131.183 77.9232 132.07 78.8136 133.168 78.8136C133.81 78.8136 134.348 78.4921 134.707 78.0297C134.96 78.8291 135.685 79.4187 136.572 79.4187C137.452 79.4187 138.176 78.8291 138.439 78.0297C138.801 78.4939 139.341 78.8136 139.977 78.8136C141.074 78.8136 141.963 77.9215 141.963 76.8265C141.963 76.7491 141.926 76.6838 141.916 76.6133C142.267 76.9348 142.736 77.1479 143.248 77.1479C144.348 77.1479 145.234 76.2575 145.234 75.1557C145.234 74.9975 145.179 74.8566 145.143 74.7019C145.363 74.7895 145.593 74.8445 145.837 74.8445C146.934 74.8445 147.821 73.9558 147.821 72.8574C147.821 72.3761 147.623 71.9516 147.334 71.606C148.376 71.5356 149.199 70.695 149.199 69.6378C149.199 68.909 148.788 68.2953 148.189 67.9498C149.141 67.8037 149.88 67.0147 149.88 66.0263Z" fill="white"/>
</svg>
