<svg width="262" height="66" viewBox="0 0 262 66" fill="none" xmlns="http://www.w3.org/2000/svg">
<g clip-path="url(#clip0_393_13906)">
<g clip-path="url(#clip1_393_13906)">
<path d="M91.4341 9.66946H87.614V7.17658C91.2726 7.17658 94.3574 7.17658 98.0341 7.17658V9.66946H94.214V19.7305H91.4341V9.66946Z" fill="white"/>
<path d="M103.988 14.2598C103.935 13.2911 102.948 12.8428 101.872 12.8428C100.832 12.8428 100.043 13.3808 99.7917 14.2598H103.988ZM99.7917 16.1429C99.9172 17.0034 100.742 17.7031 102.195 17.7031C102.894 17.7031 103.863 17.5417 104.491 17.0034L105.943 18.6176C104.993 19.5503 103.468 19.9268 102.141 19.9268C98.9308 19.9268 97.1732 18.0438 97.1732 15.2102C97.1732 12.52 98.9846 10.6368 101.872 10.6368C104.885 10.6368 106.858 12.52 106.302 16.1429H99.7917Z" fill="white"/>
<path d="M110.624 7.19428V19.7305H108.06V7.19428H110.624Z" fill="white"/>
<path d="M119.161 14.2598C119.107 13.2911 118.121 12.8428 117.045 12.8428C116.005 12.8428 115.216 13.3808 114.965 14.2598H119.161ZM114.965 16.1429C115.09 17.0034 115.915 17.7031 117.368 17.7031C118.067 17.7031 119.036 17.5417 119.663 17.0034L121.116 18.6176C120.166 19.5503 118.641 19.9268 117.314 19.9268C114.104 19.9268 112.346 18.0438 112.346 15.2102C112.346 12.52 114.157 10.6368 117.045 10.6368C120.058 10.6368 122.03 12.52 121.474 16.1429H114.965Z" fill="white"/>
<path d="M130.98 18.5639C129.922 19.604 128.648 19.9268 127.518 19.9268C124.936 19.9268 122.677 18.5099 122.677 15.3176C122.677 12.3406 124.918 10.6728 127.501 10.6728C128.792 10.6728 129.814 10.9598 130.711 11.8923L129.276 13.5244C128.738 13.112 128.146 13.0043 127.608 13.0043C126.317 13.0043 125.276 13.8473 125.276 15.3176C125.276 16.7344 126.353 17.5417 127.554 17.5417C128.128 17.5417 128.917 17.3085 129.348 16.8778L130.98 18.5639Z" fill="white"/>
<path d="M138.62 15.3176C138.62 14.2058 137.939 12.9861 136.378 12.9861C134.836 12.9861 134.154 14.2058 134.154 15.3176C134.154 16.4295 134.818 17.6312 136.378 17.6312C137.957 17.6312 138.62 16.4836 138.62 15.3176ZM131.536 15.3176C131.536 12.6454 133.437 10.6728 136.378 10.6728C139.337 10.6728 141.238 12.6454 141.238 15.3176C141.238 17.9901 139.391 19.9268 136.378 19.9268C133.383 19.9268 131.536 17.9901 131.536 15.3176Z" fill="white"/>
<path d="M148.251 19.7305V14.9777C148.251 13.8122 147.785 13.0408 146.727 13.0408C145.705 13.0408 145.131 13.9913 145.131 14.9959V19.7305H142.548V10.8709H144.808L144.987 11.8751C145.543 10.9069 146.565 10.6736 147.319 10.6736C148.287 10.6736 149.327 11.0323 149.901 12.3235C150.691 11.122 151.533 10.6559 152.842 10.6559C154.689 10.6559 156.375 11.5881 156.375 14.8881V19.7305H153.775V14.9418C153.775 13.83 153.47 13.0946 152.43 13.0946C151.407 13.0946 150.798 13.9736 150.798 14.9777V19.7305H148.251Z" fill="white"/>
<path d="M163.782 19.7305V14.9777C163.782 13.8122 163.316 13.0408 162.257 13.0408C161.235 13.0408 160.661 13.9913 160.661 14.9959V19.7305H158.079V10.8709H160.338L160.518 11.8751C161.074 10.9069 162.096 10.6736 162.849 10.6736C163.818 10.6736 164.858 11.0323 165.432 12.3235C166.221 11.122 167.064 10.6559 168.373 10.6559C170.22 10.6559 171.906 11.5881 171.906 14.8881V19.7305H169.306V14.9418C169.306 13.83 169.001 13.0946 167.961 13.0946C166.938 13.0946 166.329 13.9736 166.329 14.9777V19.7305H163.782Z" fill="white"/>
<path d="M176.085 10.8708V15.5516C176.085 16.9144 176.676 17.6138 177.914 17.6138C179.116 17.6318 179.923 16.5917 179.923 15.4437V10.8708H182.469V19.7303H180.137L180.048 18.5645C179.259 19.6224 178.255 19.9274 177.179 19.9094C175.188 19.9094 173.485 19.0129 173.485 15.5695V10.8708H176.085Z" fill="white"/>
<path d="M191.043 19.7305V15.0497C191.043 13.6866 190.45 12.9869 189.213 12.9869C188.011 12.9692 187.205 14.0093 187.205 15.1571V19.7305H184.658V10.8709H186.989L187.079 12.0007C187.868 10.9786 188.873 10.6376 189.949 10.6559C191.94 10.6559 193.643 11.5881 193.643 15.0314V19.7305H191.043Z" fill="white"/>
<path d="M195.705 10.8527V19.7305H198.288V10.8527H195.705ZM198.468 8.52169C198.468 10.4585 195.526 10.4585 195.526 8.52169C195.526 6.58456 198.468 6.58456 198.468 8.52169Z" fill="white"/>
<path d="M208.26 18.5639C207.201 19.604 205.928 19.9268 204.798 19.9268C202.216 19.9268 199.956 18.5099 199.956 15.3176C199.956 12.3406 202.198 10.6728 204.78 10.6728C206.072 10.6728 207.094 10.9598 207.991 11.8923L206.556 13.5244C206.018 13.112 205.426 13.0043 204.888 13.0043C203.597 13.0043 202.556 13.8473 202.556 15.3176C202.556 16.7344 203.632 17.5417 204.834 17.5417C205.409 17.5417 206.197 17.3085 206.628 16.8778L208.26 18.5639Z" fill="white"/>
<path d="M211.416 15.2997C211.416 16.7703 212.456 17.631 213.748 17.631C215.2 17.631 216.097 16.5013 216.097 15.3892C216.097 14.116 215.289 12.9505 213.748 12.9505C212.456 12.9505 211.416 13.829 211.416 15.2997ZM216.186 10.87H218.607C218.607 13.8113 218.607 16.788 218.607 19.7295H216.276L216.132 18.6174C215.541 19.5502 214.267 19.9086 213.407 19.9266C210.753 19.9446 208.833 18.2228 208.833 15.2997C208.833 12.3585 210.86 10.6367 213.479 10.6727C214.59 10.6727 215.631 11.1033 216.097 11.8921L216.186 10.87Z" fill="white"/>
<path d="M223.953 8.44938V10.9243H226.194V13.0765H223.935V16.4122C223.935 17.3449 224.455 17.5959 224.939 17.5959C225.244 17.5959 225.728 17.524 226.015 17.3809L226.607 19.5325C225.961 19.7836 225.441 19.8915 224.742 19.9272C222.823 20.0169 221.37 19.1739 221.37 16.4122V13.0765H219.792V10.9243H221.37V8.73639L223.953 8.44938Z" fill="white"/>
<path d="M227.952 10.8527V19.7305H230.534V10.8527H227.952ZM230.714 8.52169C230.714 10.4585 227.773 10.4585 227.773 8.52169C227.773 6.58456 230.714 6.58456 230.714 8.52169Z" fill="white"/>
<path d="M239.286 15.3176C239.286 14.2058 238.605 12.9861 237.044 12.9861C235.502 12.9861 234.82 14.2058 234.82 15.3176C234.82 16.4295 235.485 17.6312 237.044 17.6312C238.623 17.6312 239.286 16.4836 239.286 15.3176ZM232.202 15.3176C232.202 12.6454 234.103 10.6728 237.044 10.6728C240.004 10.6728 241.905 12.6454 241.905 15.3176C241.905 17.9901 240.057 19.9268 237.044 19.9268C234.049 19.9268 232.202 17.9901 232.202 15.3176Z" fill="white"/>
<path d="M249.957 19.7305V15.0497C249.957 13.6866 249.366 12.9869 248.128 12.9869C246.926 12.9692 246.12 14.0093 246.12 15.1571V19.7305H243.573V10.8709H245.904L245.994 12.0007C246.783 10.9786 247.788 10.6376 248.863 10.6559C250.854 10.6559 252.558 11.5881 252.558 15.0314V19.7305H249.957Z" fill="white"/>
<path d="M260.198 13.382C259.534 12.9158 258.907 12.7363 258.1 12.7363C257.257 12.7363 256.826 13.0412 256.826 13.4716C256.826 13.9559 257.275 14.225 258.136 14.243C259.875 14.2964 261.974 14.6553 261.991 17.0945C262.01 18.5291 260.933 20.0713 258.118 20.0713C256.808 20.0713 255.463 19.8203 253.957 18.5651L255.069 16.7356C256.163 17.6323 257.221 17.8299 258.153 17.8477C258.907 17.8657 259.498 17.5607 259.481 17.0945C259.481 16.6819 259.175 16.341 257.974 16.3052C256.324 16.2335 254.262 15.5521 254.262 13.4716C254.262 11.4631 256.163 10.6202 258.082 10.6202C259.445 10.6202 260.539 10.9609 261.471 11.768L260.198 13.382Z" fill="white"/>
<path d="M88.7079 38.8604V26.3065H91.4878V38.8604H88.7079Z" fill="white"/>
<path d="M100.276 38.8604V34.1798C100.276 32.8167 99.684 32.1173 98.4465 32.1173C97.2455 32.0991 96.4384 33.1392 96.4384 34.2872V38.8604H93.8917V30.0008H96.2232L96.3129 31.1306C97.1014 30.1082 98.1057 29.7678 99.1818 29.7858C101.173 29.7858 102.876 30.718 102.876 34.1618V38.8604H100.276Z" fill="white"/>
<path d="M107.038 34.4318C107.038 35.7052 107.826 36.7094 109.207 36.7094C110.373 36.7094 111.593 36.1174 111.593 34.4318C111.593 32.9431 110.391 32.1537 109.207 32.1537C107.88 32.1537 107.038 33.1047 107.038 34.4318ZM114.229 26.3252V38.8613H111.916L111.754 37.7315C110.929 38.7894 109.925 39.0225 108.813 39.0225C106.213 39.0225 104.437 37.1932 104.437 34.4318C104.437 31.5622 106.249 29.8227 108.849 29.8227C109.889 29.8227 110.875 30.1452 111.629 31.0779V26.3252H114.229Z" fill="white"/>
<path d="M118.892 30.0016V34.6826C118.892 36.0453 119.484 36.7447 120.722 36.7447C121.923 36.7629 122.73 35.7226 122.73 34.5747V30.0016H125.276V38.8611H122.945L122.856 37.6951C122.067 38.7537 121.062 39.0584 119.986 39.0403C117.995 39.0403 116.292 38.1435 116.292 34.7002V30.0016H118.892Z" fill="white"/>
<path d="M132.684 32.5123C132.021 32.0462 131.392 31.8666 130.586 31.8666C129.743 31.8666 129.312 32.1718 129.312 32.602C129.312 33.0863 129.76 33.3556 130.621 33.3733C132.361 33.427 134.459 33.786 134.477 36.2252C134.496 37.6597 133.419 39.2021 130.604 39.2021C129.294 39.2021 127.949 38.9511 126.443 37.6952L127.555 35.8662C128.648 36.763 129.707 36.9603 130.64 36.9783C131.392 36.9958 131.985 36.691 131.966 36.2252C131.966 35.8125 131.662 35.4715 130.46 35.4358C128.81 35.3642 126.748 34.6827 126.748 32.602C126.748 30.5934 128.648 29.7506 130.567 29.7506C131.931 29.7506 133.025 30.0913 133.957 30.8984L132.684 32.5123Z" fill="white"/>
<path d="M139.177 27.5803V30.055H141.418V32.2074H139.159V35.5428C139.159 36.4757 139.679 36.7268 140.162 36.7268C140.468 36.7268 140.952 36.6551 141.239 36.5115L141.83 38.6634C141.185 38.9145 140.665 39.0219 139.966 39.0581C138.047 39.148 136.594 38.305 136.594 35.5428V32.2074H135.016V30.055H136.594V27.867L139.177 27.5803Z" fill="white"/>
<path d="M145.22 30.0186L145.417 30.9872C146.01 30.1622 146.798 29.8035 147.785 29.8035C148.627 29.8035 149.327 30.0545 149.955 30.6106L148.879 32.6553C148.449 32.3501 148 32.207 147.462 32.207C146.35 32.207 145.399 32.9241 145.399 34.2517V38.8604H142.817V30.0186H145.22Z" fill="white"/>
<path d="M160.41 30.0016L154.977 42.8428H152.161L153.99 38.5919L150.278 30.0016H153.184L155.389 35.5794L157.559 30.0016H160.41Z" fill="white"/>
<path d="M94.7699 47.6439C92.3846 47.6439 90.7352 49.4374 90.7352 51.715C90.7352 54.0647 92.3846 55.7682 94.7699 55.7682C97.209 55.7682 98.8052 54.0467 98.8052 51.715C98.8052 49.4194 97.209 47.6439 94.7699 47.6439ZM94.7699 58.2969C90.7525 58.2969 87.9911 55.804 87.9911 51.715C87.9911 47.6264 90.7525 45.1335 94.7699 45.1335C98.7873 45.1335 101.549 47.6264 101.549 51.715C101.549 55.804 98.7873 58.2969 94.7699 58.2969Z" fill="white"/>
<path d="M108.903 57.9912V53.239C108.903 52.073 108.436 51.3018 107.378 51.3018C106.356 51.3018 105.782 52.2523 105.782 53.2564V57.9912H103.2V49.1317H105.459L105.638 50.1358C106.194 49.1674 107.217 48.9344 107.97 48.9344C108.938 48.9344 109.979 49.2928 110.553 50.5842C111.342 49.3827 112.185 48.9164 113.494 48.9164C115.341 48.9164 117.027 49.8493 117.027 53.1491V57.9912H114.426V53.2027C114.426 52.0911 114.122 51.3556 113.081 51.3556C112.059 51.3556 111.449 52.2341 111.449 53.239V57.9912H108.903Z" fill="white"/>
<path d="M121.367 53.5618C121.367 55.2478 122.586 55.8399 123.752 55.8399C125.133 55.8399 125.922 54.8357 125.922 53.5618C125.922 52.2347 125.079 51.2842 123.752 51.2842C122.568 51.2842 121.367 52.0735 121.367 53.5618ZM121.331 45.4561V50.2083C122.084 49.2759 123.07 48.9531 124.111 48.9531C126.711 48.9531 128.523 50.6922 128.523 53.5618C128.523 56.3237 126.747 58.1709 124.146 58.1709C123.035 58.1709 122.03 57.9199 121.206 56.862L121.044 57.9918H118.731V45.4561H121.331Z" fill="white"/>
<path d="M132.683 49.1315V53.8125C132.683 55.1751 133.276 55.8745 134.513 55.8745C135.715 55.8928 136.521 54.8524 136.521 53.7046V49.1315H139.068V57.991H136.737L136.647 56.825C135.858 57.8836 134.854 58.1883 133.778 58.1701C131.787 58.1701 130.083 57.2734 130.083 53.83V49.1315H132.683Z" fill="white"/>
<path d="M142.996 53.5612C142.996 54.8351 143.786 55.8393 145.166 55.8393C146.332 55.8393 147.552 55.2473 147.552 53.5612C147.552 52.073 146.35 51.2836 145.166 51.2836C143.84 51.2836 142.996 52.2341 142.996 53.5612ZM150.188 45.4555V57.9912H147.874L147.713 56.8614C146.888 57.9193 145.884 58.1523 144.772 58.1523C142.172 58.1523 140.396 56.3231 140.396 53.5612C140.396 50.6916 142.207 48.9526 144.808 48.9526C145.848 48.9526 146.834 49.2753 147.587 50.2078V45.4555H150.188Z" fill="white"/>
<path d="M157.954 51.6426C157.291 51.1761 156.663 50.997 155.855 50.997C155.013 50.997 154.582 51.3017 154.582 51.7318C154.582 52.2164 155.03 52.485 155.892 52.5032C157.631 52.5569 159.73 52.9158 159.747 55.3546C159.765 56.7896 158.689 58.332 155.874 58.332C154.565 58.332 153.219 58.081 151.713 56.8251L152.825 54.9961C153.919 55.8928 154.977 56.0902 155.909 56.1082C156.663 56.1257 157.254 55.8209 157.237 55.3546C157.237 54.9424 156.931 54.6014 155.73 54.5657C154.08 54.494 152.017 53.8126 152.017 51.7318C152.017 49.7236 153.919 48.8805 155.838 48.8805C157.2 48.8805 158.294 49.2215 159.227 50.0283L157.954 51.6426Z" fill="white"/>
<path d="M166.992 57.9912V53.239C166.992 52.073 166.527 51.3018 165.468 51.3018C164.445 51.3018 163.872 52.2523 163.872 53.2564V57.9912H161.29V49.1317H163.549L163.729 50.1358C164.285 49.1674 165.307 48.9344 166.06 48.9344C167.029 48.9344 168.069 49.2928 168.643 50.5842C169.431 49.3827 170.274 48.9164 171.584 48.9164C173.431 48.9164 175.117 49.8493 175.117 53.1491V57.9912H172.516V53.2027C172.516 52.0911 172.212 51.3556 171.171 51.3556C170.149 51.3556 169.539 52.2341 169.539 53.239V57.9912H166.992Z" fill="white"/>
<path d="M179.26 53.562C179.26 55.0325 180.3 55.8938 181.591 55.8938C183.044 55.8938 183.941 54.764 183.941 53.6519C183.941 52.3785 183.133 51.2127 181.591 51.2127C180.3 51.2127 179.26 52.092 179.26 53.562ZM184.03 49.1325H186.451C186.451 52.0738 186.451 55.0507 186.451 57.992H184.12L183.976 56.8797C183.385 57.8127 182.111 58.1711 181.25 58.1893C178.596 58.2073 176.677 56.4857 176.677 53.562C176.677 50.6212 178.704 48.8997 181.322 48.9352C182.433 48.9352 183.474 49.3656 183.941 50.1549L184.03 49.1325Z" fill="white"/>
<path d="M195.024 57.9912V53.3102C195.024 51.9475 194.432 51.2481 193.194 51.2481C191.993 51.2299 191.186 52.2702 191.186 53.4181V57.9912H188.64V49.1317H190.971L191.061 50.2615C191.85 49.2391 192.854 48.8989 193.93 48.9164C195.921 48.9164 197.624 49.8493 197.624 53.2927V57.9912H195.024Z" fill="white"/>
<path d="M14.455 32.8812C14.455 31.9156 13.672 31.1328 12.7066 31.1328C11.741 31.1328 10.958 31.9156 10.958 32.8812C10.958 33.8469 11.741 34.6299 12.7066 34.6299C13.672 34.6299 14.455 33.8469 14.455 32.8812Z" fill="white"/>
<path d="M0.794905 34.2485C1.55036 34.6789 2.51109 34.415 2.94124 33.66C3.3714 32.905 3.10798 31.9438 2.35276 31.5138C1.5973 31.0837 0.636804 31.3471 0.206418 32.1023C-0.223504 32.8576 0.0396801 33.8183 0.794905 34.2485Z" fill="white"/>
<path d="M14.8964 12.894C14.8964 12.0251 14.1919 11.3208 13.3227 11.3208C12.4537 11.3208 11.7492 12.0251 11.7492 12.894C11.7492 13.7634 12.4537 14.4678 13.3227 14.4678C14.1919 14.4678 14.8964 13.7634 14.8964 12.894Z" fill="white"/>
<path d="M21.1843 2.91578C21.1843 2.04653 20.4797 1.3423 19.6106 1.3423C18.7414 1.3423 18.0371 2.04653 18.0371 2.91578C18.0371 3.78502 18.7414 4.48926 19.6106 4.48926C20.4797 4.48926 21.1843 3.78502 21.1843 2.91578Z" fill="white"/>
<path d="M21.1843 62.7185C21.1843 61.8493 20.4797 61.145 19.6106 61.145C18.7414 61.145 18.0371 61.8493 18.0371 62.7185C18.0371 63.5877 18.7414 64.292 19.6106 64.292C20.4797 64.292 21.1843 63.5877 21.1843 62.7185Z" fill="white"/>
<path d="M14.8964 52.7714C14.8964 51.9021 14.1919 51.1975 13.3227 51.1975C12.4537 51.1975 11.7492 51.9021 11.7492 52.7714C11.7492 53.6402 12.4537 54.3447 13.3227 54.3447C14.1919 54.3447 14.8964 53.6402 14.8964 52.7714Z" fill="white"/>
<path d="M6.48878 44.1775C7.24401 44.6073 8.20496 44.3438 8.63534 43.589C9.06529 42.8336 8.80165 41.8726 8.04666 41.4422C7.29142 41.0126 6.33071 41.276 5.90053 42.0315C5.47037 42.7862 5.7338 43.7472 6.48878 44.1775Z" fill="white"/>
<path d="M6.48878 24.2739C7.24401 24.7041 8.20496 24.4404 8.63534 23.6855C9.06529 22.9303 8.80165 21.9693 8.04666 21.5394C7.29142 21.109 6.33071 21.3726 5.90053 22.1279C5.47037 22.8829 5.7338 23.8441 6.48878 24.2739Z" fill="white"/>
<path d="M62.0622 33.7267C62.938 33.2618 62.938 32.5007 62.0622 32.0358L59.0807 30.4527C57.2492 29.4805 55.0419 30.8081 55.0419 32.8813C55.0419 34.9546 57.2492 36.2822 59.0807 35.31L62.0622 33.7267Z" fill="white"/>
<path d="M56.0895 23.7507C56.9652 23.2857 56.9652 22.5247 56.0895 22.0593L53.1082 20.4766C51.277 19.5042 49.0692 20.8316 49.0692 22.9051C49.0692 24.9786 51.277 26.3057 53.1082 25.3333L56.0895 23.7507Z" fill="white"/>
<path d="M50.5514 13.7397C51.4274 13.2746 51.4274 12.5137 50.5514 12.0485L47.5703 10.4657C45.7389 9.4933 43.5312 10.8207 43.5312 12.8939C43.5312 14.9678 45.7389 16.295 47.5703 15.3225L50.5514 13.7397Z" fill="white"/>
<path d="M56.366 43.6569C57.2417 43.1914 57.2417 42.4309 56.366 41.9654L53.3846 40.3828C51.5532 39.4102 49.3457 40.7377 49.3457 42.8115C49.3457 44.8845 51.5532 46.2121 53.3846 45.2394L56.366 43.6569Z" fill="white"/>
<path d="M50.5148 53.6165C51.3907 53.1518 51.3907 52.3905 50.5148 51.9258L47.5335 50.3425C45.702 49.3703 43.4943 50.6974 43.4943 52.7711C43.4943 54.8441 45.702 56.1717 47.5335 55.1998L50.5148 53.6165Z" fill="white"/>
<path d="M75.7345 32.3903L71.1252 30.2414C69.1937 29.3407 66.9811 30.7507 66.9811 32.8819C66.9811 35.0128 69.1937 36.4229 71.1252 35.5226L75.7345 33.3732C76.1518 33.1787 76.1518 32.5851 75.7345 32.3903Z" fill="white"/>
<path d="M69.8112 22.4139L65.2026 20.2647C63.271 19.3642 61.0579 20.7743 61.0579 22.9054C61.0579 25.0366 63.271 26.4464 65.2026 25.5459L69.8112 23.397C70.2291 23.2022 70.2291 22.6083 69.8112 22.4139Z" fill="white"/>
<path d="M64.1451 12.4034L59.5354 10.2542C57.6044 9.35373 55.391 10.7638 55.391 12.8944C55.391 15.0259 57.6044 16.4357 59.5354 15.5351L64.1451 13.386C64.5623 13.1915 64.5623 12.5978 64.1451 12.4034Z" fill="white"/>
<path d="M70.1299 42.3195L65.5212 40.1703C63.5897 39.2697 61.3765 40.6794 61.3765 42.8111C61.3765 44.942 63.5897 46.3518 65.5212 45.4511L70.1299 43.3019C70.5478 43.1076 70.5478 42.5138 70.1299 42.3195Z" fill="white"/>
<path d="M64.2317 52.2802L59.6225 50.1311C57.691 49.2303 55.4778 50.6408 55.4778 52.7717C55.4778 54.9027 57.691 56.3125 59.6225 55.4122L64.2317 53.2633C64.649 53.0683 64.649 52.4745 64.2317 52.2802Z" fill="white"/>
<path d="M57.5004 2.4246L52.8914 0.275404C50.9598 -0.624919 48.7469 0.784754 48.7469 2.91601C48.7469 5.04726 50.9598 6.45718 52.8914 5.55661L57.5004 3.40742C57.918 3.21313 57.918 2.61889 57.5004 2.4246Z" fill="white"/>
<path d="M57.5066 62.2274L52.8974 60.0782C50.966 59.178 48.7531 60.5876 48.7531 62.7189C48.7531 64.8496 50.966 66.2599 52.8974 65.3594L57.5066 63.2103C57.9238 63.0155 57.9238 62.4224 57.5066 62.2274Z" fill="white"/>
<path d="M43.9295 3.76064C44.8053 3.29553 44.8053 2.5345 43.9295 2.06879L40.9483 0.48634C39.1168 -0.485727 36.9093 0.841453 36.9093 2.91471C36.9093 4.98798 39.1168 6.31551 40.9483 5.34308L43.9295 3.76064Z" fill="white"/>
<path d="M43.9258 63.564C44.8015 63.0988 44.8015 62.3377 43.9258 61.8733L40.9446 60.2895C39.1131 59.3178 36.9053 60.6454 36.9053 62.7186C36.9053 64.7923 39.1131 66.119 40.9446 65.1468L43.9258 63.564Z" fill="white"/>
<path d="M37.3927 51.5925L35.9315 50.788C34.4218 49.9559 32.5732 51.0483 32.5732 52.7718C32.5732 54.4952 34.4218 55.5874 35.9315 54.7556L37.3927 53.9504C38.3212 53.439 38.3212 52.1043 37.3927 51.5925Z" fill="white"/>
<path d="M43.0477 41.6317L41.5868 40.8265C40.0771 39.9951 38.2287 41.0869 38.2287 42.811C38.2287 44.5344 40.0771 45.6262 41.5868 44.7949L43.0477 43.9896C43.9764 43.4782 43.9764 42.1431 43.0477 41.6317Z" fill="white"/>
<path d="M48.9326 31.701L47.4716 30.8961C45.9619 30.0645 44.1135 31.1564 44.1135 32.8801C44.1135 34.6035 45.9619 35.6959 47.4716 34.8639L48.9326 34.0589C49.8611 33.5475 49.8611 32.2129 48.9326 31.701Z" fill="white"/>
<path d="M42.924 21.7264L41.4631 20.9217C39.9533 20.0896 38.1049 21.182 38.1049 22.9054C38.1049 24.6291 39.9533 25.7211 41.4631 24.8895L42.924 24.0845C43.8525 23.5726 43.8525 22.238 42.924 21.7264Z" fill="white"/>
<path d="M37.3327 11.7147L35.8717 10.9099C34.362 10.0781 32.5136 11.17 32.5136 12.8935C32.5136 14.6174 34.362 15.7093 35.8717 14.8778L37.3327 14.0726C38.2614 13.5611 38.2614 12.2263 37.3327 11.7147Z" fill="white"/>
<path d="M30.6977 24.0921C31.828 23.4396 31.828 22.3717 30.6977 21.7194L30.0973 21.3727C28.9171 20.691 27.4417 21.5426 27.4417 22.9058C27.4417 24.2686 28.9171 25.1203 30.0973 24.4389L30.6977 24.0921Z" fill="white"/>
<path d="M36.8808 34.2022C38.1393 33.476 38.1393 32.2873 36.8808 31.5608L36.2124 31.1748C34.8986 30.4163 33.256 31.3645 33.256 32.8816C33.256 34.3991 34.8986 35.3472 36.2124 34.5882L36.8808 34.2022Z" fill="white"/>
<path d="M30.8371 43.9975C31.9674 43.3448 31.9674 42.2768 30.8371 41.6241L30.2367 41.2774C29.0565 40.5962 27.5813 41.4478 27.5813 42.8112C27.5813 44.1738 29.0565 45.0255 30.2367 44.3442L30.8371 43.9975Z" fill="white"/>
<path d="M25.9597 32.8812C25.9597 31.9156 25.177 31.1328 24.2113 31.1328C23.2457 31.1328 22.4627 31.9156 22.4627 32.8812C22.4627 33.8469 23.2457 34.6299 24.2113 34.6299C25.177 34.6299 25.9597 33.8469 25.9597 32.8812Z" fill="white"/>
<path d="M20.1489 42.8107C20.1489 41.8451 19.3661 41.062 18.4005 41.062C17.4349 41.062 16.6518 41.8451 16.6518 42.8107C16.6518 43.7763 17.4349 44.5586 18.4005 44.5586C19.3661 44.5586 20.1489 43.7763 20.1489 42.8107Z" fill="white"/>
<path d="M20.1489 22.9059C20.1489 21.9403 19.3661 21.1573 18.4005 21.1573C17.4349 21.1573 16.6518 21.9403 16.6518 22.9059C16.6518 23.8716 17.4349 24.6543 18.4005 24.6543C19.3661 24.6543 20.1489 23.8716 20.1489 22.9059Z" fill="white"/>
<path d="M31.4707 61.5401L30.0097 60.7349C28.5 59.9033 26.6516 60.9955 26.6516 62.7192C26.6516 64.4426 28.5 65.5348 30.0097 64.7027L31.4707 63.898C32.3994 63.3863 32.3994 62.052 31.4707 61.5401Z" fill="white"/>
<path d="M25.2402 14.0805C26.3705 13.4278 26.3705 12.3599 25.2402 11.7074L24.6393 11.3609C23.4591 10.6794 21.9839 11.5311 21.9839 12.8937C21.9839 14.2568 23.4591 15.1085 24.6393 14.4273L25.2402 14.0805Z" fill="white"/>
<path d="M25.4394 53.9564C26.5699 53.3037 26.5699 52.2358 25.4394 51.5838L24.839 51.237C23.6588 50.5556 22.1836 51.4068 22.1836 52.7701C22.1836 54.1327 23.6588 54.9845 24.839 54.3032L25.4394 53.9564Z" fill="white"/>
<path d="M31.6225 1.73611L30.1616 0.931434C28.6519 0.0992566 26.8035 1.19149 26.8035 2.91502C26.8035 4.63915 28.6519 5.73079 30.1616 4.89921L31.6225 4.09393C32.551 3.5822 32.551 2.24784 31.6225 1.73611Z" fill="white"/>
</g>
</g>
<defs>
<clipPath id="clip0_393_13906">
<rect width="261.992" height="65.6354" fill="white"/>
</clipPath>
<clipPath id="clip1_393_13906">
<rect width="261.992" height="65.6354" fill="white"/>
</clipPath>
</defs>
</svg>
