<svg width="130" height="154" viewBox="0 0 130 154" fill="none" xmlns="http://www.w3.org/2000/svg">
<path d="M0.752075 135.285H4.94973V152.674H0.752075V135.285ZM15.733 152.844C14.3673 152.844 13.1534 152.586 12.0912 152.072C11.0736 151.565 10.2144 150.789 9.60739 149.828C9.0116 148.863 8.69059 147.747 8.64267 146.475H12.7669C12.7988 146.974 12.9521 147.432 13.2253 147.851C13.4984 148.253 13.8514 148.574 14.2859 148.815C14.7363 149.056 15.2187 149.178 15.733 149.178C16.4087 149.178 16.9549 149.032 17.3734 148.743C17.8078 148.454 18.0251 148.076 18.0251 147.609C18.0285 147.426 17.9913 147.245 17.9162 147.078C17.841 146.911 17.7299 146.763 17.5906 146.645C17.3015 146.387 16.899 146.186 16.3847 146.042L13.9728 145.391C12.5097 144.988 11.3596 144.386 10.5242 143.581C9.70323 142.762 9.29434 141.58 9.29434 140.037C9.29434 139.088 9.55947 138.235 10.0898 137.479C10.6588 136.705 11.4249 136.097 12.3084 135.719C13.2572 135.285 14.3258 135.067 15.5158 135.067C16.8191 135.067 17.9676 135.293 18.9659 135.743C19.9786 136.194 20.766 136.836 21.3283 137.673C21.9081 138.508 22.2212 139.481 22.2691 140.591H18.1689C18.073 140.108 17.7839 139.682 17.3015 139.313C16.8351 138.926 16.2393 138.733 15.5158 138.733C14.9216 138.733 14.4472 138.847 14.0926 139.072C13.9332 139.171 13.8025 139.309 13.7136 139.475C13.6247 139.64 13.5809 139.825 13.5863 140.013C13.5863 140.35 13.7076 140.623 13.9488 140.832C14.206 141.041 14.575 141.211 15.0574 141.338L17.4693 142.014C18.4676 142.287 19.3109 142.624 20.0026 143.027C20.6942 143.413 21.2484 143.968 21.6669 144.691C22.1014 145.415 22.3186 146.347 22.3186 147.49C22.3186 148.55 22.0439 149.491 21.4976 150.31C20.9513 151.115 20.1799 151.742 19.1832 152.192C18.2008 152.626 17.0524 152.844 15.733 152.844ZM34.6257 152.868C32.9054 152.868 31.3529 152.481 29.9696 151.71C28.6253 150.959 27.5088 149.859 26.7383 148.526C25.9668 147.175 25.5802 145.656 25.5802 143.968C25.5802 142.295 25.9668 140.784 26.7383 139.433C27.5136 138.095 28.6398 136.994 29.9952 136.249C31.3768 135.478 32.9134 135.091 34.6017 135.091C36.306 135.091 37.841 135.478 39.2083 136.249C40.5516 136.982 41.6628 138.077 42.4156 139.409C43.1871 140.76 43.5737 142.279 43.5737 143.968C43.5737 145.656 43.1871 147.175 42.4156 148.526C41.6588 149.861 40.5492 150.963 39.2083 151.71C37.841 152.481 36.314 152.868 34.6257 152.868ZM34.6017 149.202C35.501 149.202 36.306 148.977 37.0136 148.526C37.7212 148.06 38.2755 147.432 38.678 146.645C39.0859 145.812 39.2922 144.895 39.2802 143.968C39.294 143.048 39.0875 142.138 38.678 141.314C38.307 140.546 37.7311 139.895 37.0136 139.433C36.2922 138.979 35.4542 138.744 34.6017 138.757C33.6849 138.757 32.8639 138.982 32.1403 139.433C31.4234 139.895 30.848 140.546 30.4775 141.314C30.0667 142.138 29.8597 143.048 29.8738 143.968C29.8738 144.948 30.075 145.841 30.4775 146.645C30.8785 147.432 31.4343 148.06 32.1403 148.526C32.8639 148.977 33.6849 149.202 34.6017 149.202ZM53.4705 149.274L59.3788 144.45L59.5242 144.329C60.3595 143.623 60.9634 142.995 61.3323 142.449C61.7189 141.901 61.9121 141.354 61.9121 140.808C61.9121 140.196 61.7109 139.706 61.3083 139.337C60.9074 138.95 60.3755 138.757 59.7174 138.757C58.9619 138.757 58.3741 139.064 57.9556 139.674C57.5387 140.286 57.3695 141.089 57.4493 142.086H53.373C53.2453 140.8 53.4465 139.626 53.9768 138.566C54.4983 137.514 55.3104 136.635 56.3168 136.032C57.3399 135.406 58.5182 135.08 59.7174 135.091C60.9873 135.091 62.1134 135.333 63.0941 135.815C64.0908 136.297 64.8543 136.973 65.3846 137.842C65.9309 138.709 66.2056 139.698 66.2056 140.808C66.2056 141.934 65.851 143.011 65.1434 144.039C64.4358 145.052 63.3353 146.122 61.8386 147.248L59.5002 149.009H66.1801V152.674H53.4705V149.274ZM71.2099 152.674C71.4671 150.342 72.2082 147.922 73.4301 145.415C74.652 142.907 76.1312 140.752 77.8674 138.95H69.4497V135.285H82.3046V138.974C80.4265 141.078 78.837 143.422 77.5783 145.945C76.3564 148.421 75.6727 150.665 75.5274 152.674H71.2099ZM92.5241 152.868C91.061 152.868 89.7736 152.505 88.6651 151.781C87.555 151.042 86.6956 149.997 86.0839 148.646C85.4897 147.296 85.1909 145.736 85.1909 143.968C85.1909 142.199 85.4897 140.647 86.0839 139.313C86.6956 137.962 87.555 136.925 88.6651 136.201C89.7736 135.462 91.061 135.091 92.5241 135.091C94.0032 135.091 95.297 135.462 96.4071 136.201C97.5156 136.925 98.3765 137.962 98.9883 139.313C99.5985 140.647 99.9035 142.199 99.9035 143.968C99.9035 145.752 99.5985 147.32 98.9883 148.67C98.3765 150.005 97.5156 151.042 96.4071 151.781C95.297 152.505 94.0032 152.868 92.5241 152.868ZM92.5241 149.202C93.1997 149.202 93.762 149.001 94.2124 148.598C94.6788 148.196 95.0238 147.609 95.249 146.838C95.4902 146.05 95.6117 145.094 95.6117 143.968C95.6117 142.295 95.3449 141.009 94.8146 140.108C94.3003 139.208 93.5368 138.757 92.5241 138.757C91.8644 138.757 91.3022 138.958 90.8357 139.361C90.3853 139.763 90.0467 140.35 89.8231 141.121C89.5978 141.893 89.4845 142.841 89.4845 143.968C89.4845 145.672 89.7416 146.974 90.256 147.874C90.7703 148.759 91.5274 149.202 92.5241 149.202ZM110.728 152.868C109.265 152.868 107.979 152.505 106.869 151.781C105.761 151.042 104.9 149.997 104.29 148.646C103.694 147.296 103.397 145.736 103.397 143.968C103.397 142.199 103.694 140.647 104.29 139.313C104.9 137.962 105.761 136.925 106.869 136.201C107.979 135.462 109.265 135.091 110.728 135.091C112.207 135.091 113.503 135.462 114.611 136.201C115.721 136.925 116.582 137.962 117.193 139.313C117.804 140.647 118.109 142.199 118.109 143.968C118.109 145.752 117.804 147.32 117.193 148.67C116.582 150.005 115.721 151.042 114.611 151.781C113.503 152.505 112.207 152.868 110.728 152.868ZM110.728 149.202C111.404 149.202 111.966 149.001 112.417 148.598C112.883 148.196 113.23 147.609 113.455 146.838C113.696 146.05 113.816 145.094 113.816 143.968C113.816 142.295 113.551 141.009 113.02 140.108C112.506 139.208 111.741 138.757 110.728 138.757C110.07 138.757 109.506 138.958 109.04 139.361C108.59 139.763 108.253 140.35 108.027 141.121C107.802 141.893 107.69 142.841 107.69 143.968C107.69 145.672 107.947 146.974 108.462 147.874C108.976 148.759 109.732 149.202 110.728 149.202ZM124.978 141.29H121.119V138.179C121.956 138.163 122.695 138.05 123.339 137.842C123.95 137.645 124.509 137.315 124.978 136.877C125.428 136.443 125.751 135.912 125.942 135.285H129.175V152.674H124.978V141.29ZM85.175 51.7042L86.4767 51.7313V51.677L85.175 51.7042ZM45.5128 51.7042L44.2126 51.677C44.211 51.6951 44.211 51.7132 44.2126 51.7313L45.5128 51.7042ZM65.3447 71.5345L65.3175 72.8362H65.3718L65.3447 71.5345ZM65.3447 31.8722L65.3718 30.5721H65.3175L65.3447 31.8722ZM64.6227 3.20898C71.745 7.95771 76.4698 15.4729 79.4631 24.1638C82.4564 32.853 83.6847 42.6236 83.8748 51.7313L86.4767 51.677C86.2835 42.4 85.0328 32.3403 81.9245 23.3156C78.8162 14.2925 73.8167 6.21025 66.0651 1.04304L64.6227 3.20898ZM83.8748 51.677C83.6847 60.7831 82.4564 70.5553 79.4631 79.2446C76.4698 87.9354 71.745 95.4506 64.6227 100.199L66.0651 102.364C73.8167 97.1965 78.8162 89.1157 81.9245 80.0927C85.0328 71.0664 86.2835 61.0083 86.4767 51.7313L83.8748 51.677ZM66.0651 100.199C58.9428 95.4506 54.218 87.9354 51.2247 79.2446C48.2314 70.5553 47.0031 60.7831 46.813 51.677L44.2126 51.7313C44.4059 61.0083 45.6565 71.0664 48.7649 80.0927C51.8716 89.1157 56.8711 97.1965 64.6227 102.364L66.0651 100.199ZM46.813 51.7313C47.0031 42.6236 48.2314 32.853 51.2247 24.1638C54.218 15.4729 58.9428 7.95771 66.0651 3.20898L64.6227 1.04304C56.8711 6.21025 51.8716 14.2925 48.7649 23.3156C45.6565 32.3403 44.4059 42.4 44.2126 51.677L46.813 51.7313ZM113.621 51.7042C113.621 78.3661 92.0066 99.9805 65.3447 99.9805V102.582C93.4441 102.582 116.223 79.8036 116.223 51.7042H113.621ZM65.3447 99.9805C38.6812 99.9805 17.0667 78.3661 17.0667 51.7042H14.4648C14.4648 79.8036 37.2436 102.582 65.3447 102.582V99.9805ZM17.0667 51.7042C17.0667 25.0407 38.6812 3.4278 65.3447 3.4278V0.824219C37.2436 0.824219 14.4648 23.6047 14.4648 51.7042H17.0667ZM65.3447 3.4278C92.0066 3.4278 113.621 25.0407 113.621 51.7042H116.223C116.223 23.6047 93.4441 0.824219 65.3447 0.824219V3.4278ZM113.84 50.9822C109.091 58.1045 101.576 62.8292 92.8851 65.8225C84.1959 68.8159 74.4237 70.0442 65.3175 70.2342L65.3718 72.8362C74.6473 72.6429 84.707 71.3923 93.7317 68.284C102.755 65.1757 110.837 60.1762 116.004 52.4261L113.84 50.9822ZM65.3718 70.2342C56.2641 70.0442 46.4919 68.8159 37.8027 65.8225C29.1119 62.8292 21.5967 58.1045 16.8495 50.9822L14.6836 52.4261C19.8508 60.1762 27.9331 65.1757 36.9561 68.284C45.9808 71.3923 56.0405 72.6429 65.3175 72.8362L65.3718 70.2342ZM16.8495 52.4261C21.5967 45.3038 29.1119 40.5775 37.8027 37.5842C46.4919 34.5924 56.2641 33.3641 65.3718 33.174L65.3175 30.5721C56.0405 30.7653 45.9808 32.016 36.9561 35.1243C27.9331 38.2326 19.8508 43.2306 14.6836 50.9822L16.8495 52.4261ZM65.3175 33.174C74.4237 33.3641 84.1959 34.5924 92.8851 37.5842C101.576 40.5775 109.091 45.3038 113.84 52.4261L116.004 50.9822C110.837 43.2306 102.755 38.2326 93.7317 35.1243C84.707 32.016 74.6473 30.7653 65.3718 30.5721L65.3175 33.174Z" fill="white"/>
<path d="M86.4767 51.7313L85.175 51.7042L86.4767 51.677M86.4767 51.7313V51.677M86.4767 51.7313C86.2835 61.0083 85.0328 71.0664 81.9245 80.0927C78.8162 89.1157 73.8167 97.1965 66.0651 102.364L64.6227 100.199C71.745 95.4506 76.4698 87.9354 79.4631 79.2446C82.4564 70.5553 83.6847 60.7831 83.8748 51.677L86.4767 51.7313ZM86.4767 51.677L83.8748 51.7313C83.6847 42.6236 82.4564 32.853 79.4631 24.1638C76.4698 15.4729 71.745 7.95771 64.6227 3.20898L66.0651 1.04304C73.8167 6.21025 78.8162 14.2925 81.9245 23.3156C85.0328 32.3403 86.2835 42.4 86.4767 51.677ZM44.2126 51.677L45.5128 51.7042L44.2126 51.7313M44.2126 51.677C44.211 51.6951 44.211 51.7132 44.2126 51.7313M44.2126 51.677C44.4059 42.4 45.6565 32.3403 48.7649 23.3156C51.8716 14.2925 56.8711 6.21025 64.6227 1.04304L66.0651 3.20898C58.9428 7.95771 54.218 15.4729 51.2247 24.1638C48.2314 32.853 47.0031 42.6236 46.813 51.7313L44.2126 51.677ZM44.2126 51.7313L46.813 51.677C47.0031 60.7831 48.2314 70.5553 51.2247 79.2446C54.218 87.9354 58.9428 95.4506 66.0651 100.199L64.6227 102.364C56.8711 97.1965 51.8716 89.1157 48.7649 80.0927C45.6565 71.0664 44.4059 61.0083 44.2126 51.7313ZM65.3175 72.8362L65.3447 71.5345L65.3718 72.8362M65.3175 72.8362H65.3718M65.3175 72.8362C56.0405 72.6429 45.9808 71.3923 36.9561 68.284C27.9331 65.1757 19.8508 60.1762 14.6836 52.4261L16.8495 50.9822C21.5967 58.1045 29.1119 62.8292 37.8027 65.8225C46.4919 68.8159 56.2641 70.0442 65.3718 70.2342L65.3175 72.8362ZM65.3718 72.8362L65.3175 70.2342C74.4237 70.0442 84.1959 68.8159 92.8851 65.8225C101.576 62.8292 109.091 58.1045 113.84 50.9822L116.004 52.4261C110.837 60.1762 102.755 65.1757 93.7317 68.284C84.707 71.3923 74.6473 72.6429 65.3718 72.8362ZM65.3718 30.5721L65.3447 31.8722L65.3175 30.5721M65.3718 30.5721H65.3175M65.3718 30.5721C74.6473 30.7653 84.707 32.016 93.7317 35.1243C102.755 38.2326 110.837 43.2306 116.004 50.9822L113.84 52.4261C109.091 45.3038 101.576 40.5775 92.8851 37.5842C84.1959 34.5924 74.4237 33.3641 65.3175 33.174L65.3718 30.5721ZM65.3175 30.5721L65.3718 33.174C56.2641 33.3641 46.4919 34.5924 37.8027 37.5842C29.1119 40.5775 21.5967 45.3038 16.8495 52.4261L14.6836 50.9822C19.8508 43.2306 27.9331 38.2326 36.9561 35.1243C45.9808 32.016 56.0405 30.7653 65.3175 30.5721ZM113.621 51.7042C113.621 78.3661 92.0066 99.9805 65.3447 99.9805M113.621 51.7042H116.223M113.621 51.7042C113.621 25.0407 92.0066 3.4278 65.3447 3.4278M65.3447 99.9805V102.582M65.3447 99.9805C38.6812 99.9805 17.0667 78.3661 17.0667 51.7042M65.3447 102.582C93.4441 102.582 116.223 79.8036 116.223 51.7042M65.3447 102.582C37.2436 102.582 14.4648 79.8036 14.4648 51.7042M116.223 51.7042C116.223 23.6047 93.4441 0.824219 65.3447 0.824219M17.0667 51.7042H14.4648M17.0667 51.7042C17.0667 25.0407 38.6812 3.4278 65.3447 3.4278M14.4648 51.7042C14.4648 23.6047 37.2436 0.824219 65.3447 0.824219M65.3447 3.4278V0.824219M0.752075 135.285H4.94973V152.674H0.752075V135.285ZM15.733 152.844C14.3673 152.844 13.1534 152.586 12.0912 152.072C11.0736 151.565 10.2144 150.789 9.60739 149.828C9.0116 148.863 8.69059 147.747 8.64267 146.475H12.7669C12.7988 146.974 12.9521 147.432 13.2253 147.851C13.4984 148.253 13.8514 148.574 14.2859 148.815C14.7363 149.056 15.2187 149.178 15.733 149.178C16.4087 149.178 16.9549 149.032 17.3734 148.743C17.8078 148.454 18.0251 148.076 18.0251 147.609C18.0285 147.426 17.9913 147.245 17.9162 147.078C17.841 146.911 17.7299 146.763 17.5906 146.645C17.3015 146.387 16.899 146.186 16.3847 146.042L13.9728 145.391C12.5097 144.988 11.3596 144.386 10.5242 143.581C9.70323 142.762 9.29434 141.58 9.29434 140.037C9.29434 139.088 9.55947 138.235 10.0898 137.479C10.6588 136.705 11.4249 136.097 12.3084 135.719C13.2572 135.285 14.3258 135.067 15.5158 135.067C16.8191 135.067 17.9676 135.293 18.9659 135.743C19.9786 136.194 20.766 136.836 21.3283 137.673C21.9081 138.508 22.2212 139.481 22.2691 140.591H18.1689C18.073 140.108 17.7839 139.682 17.3015 139.313C16.8351 138.926 16.2393 138.733 15.5158 138.733C14.9216 138.733 14.4472 138.847 14.0926 139.072C13.9332 139.171 13.8025 139.309 13.7136 139.475C13.6247 139.64 13.5809 139.825 13.5863 140.013C13.5863 140.35 13.7076 140.623 13.9488 140.832C14.206 141.041 14.575 141.211 15.0574 141.338L17.4693 142.014C18.4676 142.287 19.3109 142.624 20.0026 143.027C20.6942 143.413 21.2484 143.968 21.6669 144.691C22.1014 145.415 22.3186 146.347 22.3186 147.49C22.3186 148.55 22.0439 149.491 21.4976 150.31C20.9513 151.115 20.1799 151.742 19.1832 152.192C18.2008 152.626 17.0524 152.844 15.733 152.844ZM34.6257 152.868C32.9054 152.868 31.3529 152.481 29.9696 151.71C28.6253 150.959 27.5088 149.859 26.7383 148.526C25.9668 147.175 25.5802 145.656 25.5802 143.968C25.5802 142.295 25.9668 140.784 26.7383 139.433C27.5136 138.095 28.6398 136.994 29.9952 136.249C31.3768 135.478 32.9134 135.091 34.6017 135.091C36.306 135.091 37.841 135.478 39.2083 136.249C40.5516 136.982 41.6628 138.077 42.4156 139.409C43.1871 140.76 43.5737 142.279 43.5737 143.968C43.5737 145.656 43.1871 147.175 42.4156 148.526C41.6588 149.861 40.5492 150.963 39.2083 151.71C37.841 152.481 36.314 152.868 34.6257 152.868ZM34.6017 149.202C35.501 149.202 36.306 148.977 37.0136 148.526C37.7212 148.06 38.2755 147.432 38.678 146.645C39.0859 145.812 39.2922 144.895 39.2802 143.968C39.294 143.048 39.0875 142.138 38.678 141.314C38.307 140.546 37.7311 139.895 37.0136 139.433C36.2922 138.979 35.4542 138.744 34.6017 138.757C33.6849 138.757 32.8639 138.982 32.1403 139.433C31.4234 139.895 30.848 140.546 30.4775 141.314C30.0667 142.138 29.8597 143.048 29.8738 143.968C29.8738 144.948 30.075 145.841 30.4775 146.645C30.8785 147.432 31.4343 148.06 32.1403 148.526C32.8639 148.977 33.6849 149.202 34.6017 149.202ZM53.4705 149.274L59.3788 144.45L59.5242 144.329C60.3595 143.623 60.9634 142.995 61.3323 142.449C61.7189 141.901 61.9121 141.354 61.9121 140.808C61.9121 140.196 61.7109 139.706 61.3083 139.337C60.9074 138.95 60.3755 138.757 59.7174 138.757C58.9619 138.757 58.3741 139.064 57.9556 139.674C57.5387 140.286 57.3695 141.089 57.4493 142.086H53.373C53.2453 140.8 53.4465 139.626 53.9768 138.566C54.4983 137.514 55.3104 136.635 56.3168 136.032C57.3399 135.406 58.5182 135.08 59.7174 135.091C60.9873 135.091 62.1134 135.333 63.0941 135.815C64.0908 136.297 64.8543 136.973 65.3846 137.842C65.9309 138.709 66.2056 139.698 66.2056 140.808C66.2056 141.934 65.851 143.011 65.1434 144.039C64.4358 145.052 63.3353 146.122 61.8386 147.248L59.5002 149.009H66.1801V152.674H53.4705V149.274ZM71.2099 152.674C71.4671 150.342 72.2082 147.922 73.4301 145.415C74.652 142.907 76.1312 140.752 77.8674 138.95H69.4497V135.285H82.3046V138.974C80.4265 141.078 78.837 143.422 77.5783 145.945C76.3564 148.421 75.6727 150.665 75.5274 152.674H71.2099ZM92.5241 152.868C91.061 152.868 89.7736 152.505 88.6651 151.781C87.555 151.042 86.6956 149.997 86.0839 148.646C85.4897 147.296 85.1909 145.736 85.1909 143.968C85.1909 142.199 85.4897 140.647 86.0839 139.313C86.6956 137.962 87.555 136.925 88.6651 136.201C89.7736 135.462 91.061 135.091 92.5241 135.091C94.0032 135.091 95.297 135.462 96.4071 136.201C97.5156 136.925 98.3765 137.962 98.9883 139.313C99.5985 140.647 99.9035 142.199 99.9035 143.968C99.9035 145.752 99.5985 147.32 98.9883 148.67C98.3765 150.005 97.5156 151.042 96.4071 151.781C95.297 152.505 94.0032 152.868 92.5241 152.868ZM92.5241 149.202C93.1997 149.202 93.762 149.001 94.2124 148.598C94.6788 148.196 95.0238 147.609 95.249 146.838C95.4902 146.05 95.6117 145.094 95.6117 143.968C95.6117 142.295 95.3449 141.009 94.8146 140.108C94.3003 139.208 93.5368 138.757 92.5241 138.757C91.8644 138.757 91.3022 138.958 90.8357 139.361C90.3853 139.763 90.0467 140.35 89.8231 141.121C89.5978 141.893 89.4845 142.841 89.4845 143.968C89.4845 145.672 89.7416 146.974 90.256 147.874C90.7703 148.759 91.5274 149.202 92.5241 149.202ZM110.728 152.868C109.265 152.868 107.979 152.505 106.869 151.781C105.761 151.042 104.9 149.997 104.29 148.646C103.694 147.296 103.397 145.736 103.397 143.968C103.397 142.199 103.694 140.647 104.29 139.313C104.9 137.962 105.761 136.925 106.869 136.201C107.979 135.462 109.265 135.091 110.728 135.091C112.207 135.091 113.503 135.462 114.611 136.201C115.721 136.925 116.582 137.962 117.193 139.313C117.804 140.647 118.109 142.199 118.109 143.968C118.109 145.752 117.804 147.32 117.193 148.67C116.582 150.005 115.721 151.042 114.611 151.781C113.503 152.505 112.207 152.868 110.728 152.868ZM110.728 149.202C111.404 149.202 111.966 149.001 112.417 148.598C112.883 148.196 113.23 147.609 113.455 146.838C113.696 146.05 113.816 145.094 113.816 143.968C113.816 142.295 113.551 141.009 113.02 140.108C112.506 139.208 111.741 138.757 110.728 138.757C110.07 138.757 109.506 138.958 109.04 139.361C108.59 139.763 108.253 140.35 108.027 141.121C107.802 141.893 107.69 142.841 107.69 143.968C107.69 145.672 107.947 146.974 108.462 147.874C108.976 148.759 109.732 149.202 110.728 149.202ZM124.978 141.29H121.119V138.179C121.956 138.163 122.695 138.05 123.339 137.842C123.95 137.645 124.509 137.315 124.978 136.877C125.428 136.443 125.751 135.912 125.942 135.285H129.175V152.674H124.978V141.29Z" stroke="white" stroke-width="1.50414"/>
</svg>
