<svg xmlns="http://www.w3.org/2000/svg" width="228.5" height="25.856" viewBox="0 0 228.5 25.856">
  <g id="xwise_group_logo_full_dark_rgb" transform="translate(-269.021 -384.027)">
    <g id="Group_179" data-name="Group 179" transform="translate(294.723 384.546)">
      <path id="Path_256" data-name="Path 256" d="M347.025,410.325l-4.608-24.816h4.715l4.608,24.71h.035l4.821-24.71h9.572l5.248,24.745h.035l3.97-24.745h4.786l-4.041,24.816h-9.5l-5.282-24.745h-.036l-4.821,24.745Z" transform="translate(-342.417 -385.509)" fill="#7a0046"/>
      <rect id="Rectangle_95" data-name="Rectangle 95" width="4.68" height="24.816" transform="translate(39.743 0)" fill="#7a0046"/>
      <path id="Path_257" data-name="Path 257" d="M486.147,385.509c5.353,0,10.99.851,10.99,7.374h-4.5c0-3.332-3.829-3.332-6.523-3.332-2.482,0-6.382.035-6.382,3.155,0,1.666,1.064,2.695,3.049,2.907l8.366.744c3.9.32,6.382,2.659,6.382,6.452,0,6.7-6.311,7.516-11.735,7.516-5.211,0-10.954-1.064-10.954-7.374h4.5c0,3.226,3.829,3.332,6.487,3.332,2.624,0,7.2.036,7.2-3.083,0-1.808-1.1-2.34-2.871-2.624l-8.4-.78c-4.042-.39-6.559-3.013-6.559-6.913,0-6.133,5.885-7.374,10.954-7.374" transform="translate(-428.466 -385.509)" fill="#7a0046"/>
      <path id="Path_258" data-name="Path 258" d="M565.112,385.509v4.361H549.372v5.85h15.741v4.112H549.372v6.134h15.741v4.361h-20.42V385.509Z" transform="translate(-473.858 -385.509)" fill="#7a0046"/>
    </g>
    <g id="Group_182" data-name="Group 182" transform="translate(388.238 384.027)">
      <path id="Path_259" data-name="Path 259" d="M747.142,384.027c7.785,0,11.677,6.151,11.677,12.928s-3.892,12.928-11.677,12.928c-7.819,0-11.712-6.151-11.712-12.928S739.322,384.027,747.142,384.027Zm0,23.841c6.534,0,9.314-5.491,9.314-10.913s-2.78-10.912-9.314-10.912c-6.568,0-9.348,5.491-9.348,10.912S740.574,407.868,747.142,407.868Z" transform="translate(-691.317 -384.027)" fill="#7a0046"/>
      <path id="Path_260" data-name="Path 260" d="M807.718,385.516h2.364v15.361c-.035,5.769,2.71,7.959,7.263,7.959,4.587,0,7.333-2.19,7.3-7.959V385.516h2.364V401.4c0,5.108-2.746,9.453-9.662,9.453-6.881,0-9.627-4.344-9.627-9.453V385.516Z" transform="translate(-738.291 -384.995)" fill="#7a0046"/>
      <path id="Path_261" data-name="Path 261" d="M869.032,385.516h11.017c4.448,0,7.367,2.606,7.367,7.089s-2.919,7.09-7.367,7.09h-8.654v10.634h-2.363Zm2.363,12.164h8.133c3.267,0,5.526-1.668,5.526-5.074s-2.259-5.074-5.526-5.074h-8.133Z" transform="translate(-778.133 -384.995)" fill="#7a0046"/>
      <g id="Group_180" data-name="Group 180" transform="translate(0 0)">
        <path id="Path_262" data-name="Path 262" d="M643.3,420.35v2.015h8.445l.382,10.6h1.7V420.35Z" transform="translate(-631.45 -407.63)" fill="#7a0046"/>
        <path id="Path_263" data-name="Path 263" d="M621.172,407.868c-6.569,0-9.349-5.491-9.349-10.913s2.78-10.912,9.349-10.912c4.726,0,7.681,3.371,7.993,6.221h2.363c-.9-5.422-5.143-8.237-10.356-8.237-7.819,0-11.712,6.151-11.712,12.928s3.892,12.928,11.712,12.928c3.58,0,9.084-2.6,8.584-11.121C629.525,403.961,626.663,407.868,621.172,407.868Z" transform="translate(-609.46 -384.027)" fill="#7a0046"/>
      </g>
      <g id="Group_181" data-name="Group 181" transform="translate(24.547 0.521)">
        <path id="Path_264" data-name="Path 264" d="M697.942,392.605c0-4.483-2.919-7.089-7.367-7.089H679.558v24.813h2.363V399.7h8.654C695.023,399.7,697.942,397.088,697.942,392.605Zm-7.888,5.075h-8.133V387.531h8.133c3.267,0,5.526,1.668,5.526,5.074S693.321,397.68,690.054,397.68Z" transform="translate(-679.558 -385.516)" fill="#7a0046"/>
        <path id="Path_265" data-name="Path 265" d="M718.124,430.275c-.173-2.953-2.758-4.35-7.561-4.274,4.322.249,5.233,3.3,5.442,6.776.069,1.043.069,2.885.66,3.858h2.606c-1.042-1.251-1.042-4.657-1.147-6.36Z" transform="translate(-699.705 -411.822)" fill="#7a0046"/>
      </g>
    </g>
    <path id="Path_266" data-name="Path 266" d="M293.878,385.509h-8.158l-4.27,6.346-4.27-6.346h-8.158l8.349,12.408-8.349,12.408h8.158l4.27-6.346,4.27,6.346h8.158l-8.349-12.408Z" transform="translate(0 -0.963)" fill="#7a0046"/>
  </g>
</svg>
