<svg xmlns="http://www.w3.org/2000/svg" width="1840" height="205.532" viewBox="0 0 1840 205.532">
  <g id="AboveZero_Brand_RGB_Logo_White" transform="translate(-184.54 -184.52)">
    <path id="Path_1" data-name="Path 1" d="M361.219,381.054c-6.4-9.574-11.176-20.793-16.79-35.82L282.265,187H250.847v4.609l.39.725a23.38,23.38,0,0,1,.649,19.3L202.694,342.312c-6.654,18.121-12.885,31.872-17.58,38.709l-.573.833v4.782h33.289v-4.76l-.13-.422c-2.369-8.514-2.618-23.888,3.786-41.457l7.227-19.355,6.026-16.141,31.3-83.433L298.525,304.5l6.4,16.141,10.245,26.376c5.161,13.123,7.065,26.149,5.106,34.858l-.086,4.76h41.587v-4.76l-.552-.822Z" transform="translate(0 0.203)" fill="#2b1f14"/>
    <path id="Path_2" data-name="Path 2" d="M453.6,276.339H415.386V202.351h40.407c23.92,0,38.211,13.328,38.211,35.658,0,24.363-14.735,38.33-40.408,38.33m-38.211,16.087,14.161-.216h24.872c30.671,0,48.976,15.135,48.976,40.473s-16.011,38.6-48.976,38.6H415.386V292.416Zm77.743-9.553c19.019-9.639,29.74-25.629,29.74-44.865,0-28.6-27.036-51-61.547-51H383.471v4.046l.195,1.233c1.677,7.616,4.5,20.372,4.5,33.916V347.45c0,13.523-2.813,26.278-4.5,33.895l-.13.552-.076,4.749h76.466c43.09,0,72.041-21.778,72.041-54.212,0-22.568-14.032-40.289-38.85-49.549" transform="translate(16.284 0.204)" fill="#2b1f14"/>
    <path id="Path_3" data-name="Path 3" d="M651.508,374.181c-37.465,0-65.7-37.93-65.7-88.237s27.631-85.813,65.7-85.813,66,35.983,66,85.554-28.377,88.5-66,88.5m0-189.661c-54.461,0-97.108,44.551-97.108,101.425s43.567,104.108,97.108,104.108,97.4-46.7,97.4-104.108-42.777-101.425-97.4-101.425" transform="translate(30.278 0)" fill="#2b1f14"/>
    <path id="Path_4" data-name="Path 4" d="M896.627,187.01v4.8l.141.465c2.564,8.374,2.91,23.715-3.808,41.673L848.138,357.209l-49.69-130.57c-4.847-12.344-6.654-25.4-4.8-34.955l.065-4.663H751.3v5.29l.541.822c6.231,9.347,12.538,22.2,17.374,35.323l61.309,158.2h24.385l56.3-155.269c6.329-16.747,14.194-32.715,18.143-38.482l.573-.822v-5.052H896.638Z" transform="translate(46.397 0.204)" fill="#2b1f14"/>
    <path id="Path_5" data-name="Path 5" d="M1079.155,353.6l-.746.422c-1.493.855-3.181,1.883-5.02,3.019-9.294,5.68-23.347,14.27-37.584,14.27h-53.39V291.139h34.879c16.217,0,31.266,4.565,40.267,7.3l.692.216h4.555V268.3h-4.555l-2.964.909c-9.207,2.834-23.109,7.14-37.995,7.14H982.415V202.362h52.568c14.237,0,28.28,8.59,37.584,14.27,1.838,1.136,3.516,2.153,5.009,3l.747.433h5.214V187.01H950.511v4.046l.184,1.255c1.7,7.606,4.512,20.361,4.512,33.884V347.45c0,13.513-2.813,26.268-4.5,33.884l-.129.552-.076,4.749h133.848V353.6h-5.2Z" transform="translate(62.704 0.204)" fill="#2b1f14"/>
    <path id="Path_6" data-name="Path 6" d="M1332.606,356.549c-9.552,5.518-25.542,14.746-41.921,14.746h-56.875L1348.467,187.01H1200.4v31.709h5.215l2.791-1.612c9.563-5.528,25.565-14.757,42.2-14.757h57.436L1193.1,386.635h147.513V354.926h-5.2l-2.813,1.623Z" transform="translate(82.564 0.204)" fill="#2b1f14"/>
    <path id="Path_7" data-name="Path 7" d="M1503.545,353.6l-.746.422c-1.493.855-3.18,1.883-5.02,3.019-9.292,5.68-23.347,14.27-37.583,14.27h-53.389V291.139h34.879c16.218,0,31.266,4.565,40.267,7.3l.691.216h4.555V268.3h-4.555l-2.963.909c-9.206,2.834-23.109,7.14-38,7.14h-34.879V202.362h52.567c14.238,0,28.28,8.59,37.584,14.27,1.84,1.136,3.517,2.153,5.009,3l.746.433h5.214V187.01H1374.9v4.046l.2,1.255c1.677,7.616,4.5,20.371,4.5,33.884V347.45c0,13.513-2.813,26.268-4.5,33.873l-.131.563-.075,4.749h133.849V353.6h-5.2Z" transform="translate(97.445 0.204)" fill="#2b1f14"/>
    <path id="Path_8" data-name="Path 8" d="M1574,202.081h37.647c19.7,0,43.178,6.924,43.178,39.953,0,35.453-28.43,40.743-45.4,40.743H1574Zm125.96,178.3c-11.392-12.312-16.184-22.362-26.69-44.4-2.65-5.572-5.679-11.89-9.25-19.214-5.247-10.581-12.3-18.327-21.442-23.455,25.792-7.021,41.391-26.181,41.391-51.843,0-33.6-25.489-54.472-66.513-54.472H1542.1v4.046l.195,1.255c1.677,7.605,4.5,20.361,4.5,33.884V347.429c0,13.512-2.813,26.268-4.5,33.884l-.129.563-.077,4.749h36.871v-4.046l-.1-.811A139.348,139.348,0,0,1,1574,347.43v-49.6h32c14.887,3.743,26.765,15.3,35.28,34.295l.022.033c10.645,22.957,21.616,45.979,28.452,53.412l.963,1.05H1700.8v-5.323l-.854-.93Z" transform="translate(111.133 0.203)" fill="#2b1f14"/>
    <path id="Path_9" data-name="Path 9" d="M1802.627,374.181c-37.464,0-65.712-37.93-65.712-88.237s27.642-85.813,65.712-85.813,66.005,35.983,66.005,85.554-28.377,88.5-66.005,88.5m0-189.661c-54.461,0-97.107,44.551-97.107,101.425s43.567,104.108,97.107,104.108,97.4-46.7,97.4-104.108-42.776-101.425-97.4-101.425" transform="translate(124.512 0)" fill="#2b1f14"/>
  </g>
</svg>
