<?xml version="1.0" encoding="UTF-8"?> <svg xmlns="http://www.w3.org/2000/svg" width="623" height="128" viewBox="0 0 623 128" fill="none"><g clip-path="url(#clip0_301_298)"><path d="M30.4 0H0V125H30.4V0Z" fill="#150E0B"></path><path d="M39.3 125H93.9001V102.4L39.3 125Z" fill="#150E0B"></path><path d="M161.2 110.5C144.6 117.9 133.9 111.1 133.9 93.2V30.7H107.2V101.8C107.2 103.8 107.7 105.7 108.1 107.6C110.3 115.9 114.8 122.3 123.1 125.2C137.5 130.1 154.4 124.6 163.5 112.4C164.1 111.6 164.3 110.5 165 108.8C163 109.6 162.1 110.1 161.1 110.5" fill="#150E0B"></path><path d="M196.5 30.6H169.6V125H196.5V30.6Z" fill="#150E0B"></path><path d="M530.7 45.1C547.3 37.7 558 44.5 558 62.4V124.9H584.7V53.8C584.7 51.8 584.2 49.9 583.8 48C581.6 39.7 577.1 33.3 568.8 30.4C554.4 25.5 537.5 31 528.4 43.2C527.8 44 527.6 45.1 526.9 46.8C528.9 46 529.8 45.5 530.8 45.1" fill="#150E0B"></path><path d="M522.5 30.6H495.6V124.9H522.5V30.6Z" fill="#150E0B"></path><path d="M342.1 93.3V39.9H361.1L369.6 30.7H342.1V0L315.2 11.2V101.9C315.2 103.9 315.7 105.8 316.1 107.7C318.3 116 322.8 122.4 331.1 125.3C345.5 130.2 362.4 124.7 371.5 112.5C372.1 111.8 372.3 110.6 373 108.9C371 109.7 370.1 110.2 369.1 110.6C352.5 118 342 111.3 342 93.3" fill="#150E0B"></path><path d="M425.2 28.7C420.5 29.9 416.7 34.4 414.2 37.2C410.9 41 409.1 45.5 408 50.3C407.3 53.6 406.7 56.9 406.4 60.3C406 64.4 405.8 68.6 405.6 72.7C405.3 77.9 405.6 82.9 405.8 88.1C405.8 90.5 406.1 93.1 406.4 95.5C407 100.9 407.8 106.3 410 111.5C411.7 115.5 414 119 417.4 121.8C419.7 123.6 422.3 125.6 425.3 127C419.3 127 413.3 125.5 408.7 123.6C400.9 120.4 394.1 115.8 388.5 109.3C383.8 103.9 380.6 97.7 378.7 90.7C377.8 87.2 377.3 83.7 377.2 80.2C376.8 71.7 378.5 63.6 382.5 56C386.7 47.9 392.7 41.6 400.4 36.8C406.3 33.1 416 28.9 425.3 28.9" fill="#150E0B"></path><path d="M432.6 28.7C437.3 29.9 441.1 34.4 443.6 37.2C446.9 41 448.7 45.5 449.8 50.3C450.5 53.6 451.1 56.9 451.4 60.3C451.8 64.4 452 68.6 452.2 72.7C452.5 77.9 452.2 82.9 452 88.1C452 90.5 451.7 93.1 451.4 95.5C450.8 100.9 450 106.3 447.8 111.5C446.1 115.5 443.8 119 440.4 121.8C438.1 123.6 435.5 125.6 432.5 127C438.5 127 444.5 125.5 449.1 123.6C456.9 120.4 463.7 115.8 469.3 109.3C474 103.9 477.2 97.7 479.1 90.7C480 87.2 480.5 83.7 480.6 80.2C481 71.7 479.3 63.6 475.3 56C471.1 47.9 465.1 41.6 457.4 36.8C451.5 33.1 441.8 28.9 432.5 28.9" fill="#150E0B"></path><path d="M208.9 30.6L271.5 125H301.4L238.9 30.6H208.9Z" fill="#150E0B"></path><path d="M301.4 30.6L273.7 60.6V30.6H301.4Z" fill="#150E0B"></path><path d="M208.9 125H236.6V94.9L208.9 125Z" fill="#150E0B"></path><path d="M620.9 112.5C620.9 119.1 615.8 124.2 609.2 124.2C602.6 124.2 597.6 119.1 597.6 112.6C597.6 106.1 602.7 100.9 609.3 100.9C615.9 100.9 620.9 106 620.9 112.5ZM609.3 99.3C602 99.3 596 105.3 596 112.6C596 119.9 601.9 125.9 609.3 125.9C616.7 125.9 622.6 119.9 622.6 112.6C622.6 105.3 616.7 99.3 609.3 99.3Z" fill="#150E0B"></path><path d="M613 109.7C613 111.1 611.8 112 610 112H606.4V107.6H610.2C612 107.6 613.1 108.4 613.1 109.8M615.3 109.7C615.3 108.6 614.9 107.7 614.2 107C613.3 106.1 611.9 105.6 610.2 105.6H604.2V119H606.4V114H609.6L613.4 118.9H616.1L612 113.5C614.1 112.9 615.3 111.5 615.3 109.6" fill="#150E0B"></path></g><defs><clipPath id="clip0_301_298"><rect width="622.6" height="127.1" fill="white"></rect></clipPath></defs></svg> 